<svg xmlns="http://www.w3.org/2000/svg" xmlns:xlink="http://www.w3.org/1999/xlink" width="140" height="96.24" viewBox="0 0 140 96.24"><defs><linearGradient id="a" y1="0.5" x2="1" y2="0.5" gradientUnits="objectBoundingBox"><stop offset="0.006" stop-color="#fac826"/><stop offset="0.253" stop-color="#fffacb"/><stop offset="0.305" stop-color="#f8eeba"/><stop offset="0.408" stop-color="#e7d08d"/><stop offset="0.552" stop-color="#cba145"/><stop offset="0.595" stop-color="#c2912e"/><stop offset="0.871" stop-color="#edd688"/><stop offset="1" stop-color="#fffacb"/></linearGradient><linearGradient id="c" x1="-2.418" x2="3.438" xlink:href="#a"/><linearGradient id="d" x1="-16.907" x2="18.027" xlink:href="#a"/><linearGradient id="e" x1="-0.136" x2="1.14" xlink:href="#a"/><linearGradient id="f" x1="0.026" x2="6.854" xlink:href="#a"/><linearGradient id="g" x1="-1.051" x2="5.915" xlink:href="#a"/><linearGradient id="h" x1="-2.036" x2="4.615" xlink:href="#a"/><linearGradient id="i" x1="-4.255" x2="4.843" xlink:href="#a"/><linearGradient id="j" x1="-6.481" x2="4.298" xlink:href="#a"/><linearGradient id="k" x1="-5.005" x2="2.092" xlink:href="#a"/><linearGradient id="l" x1="-5.499" xlink:href="#a"/><linearGradient id="m" x1="-3.4" x2="3.252" xlink:href="#a"/><linearGradient id="n" x1="-10.321" x2="15.524" xlink:href="#a"/><linearGradient id="o" x1="-28.475" x2="39.036" xlink:href="#a"/><linearGradient id="p" x1="-8.012" x2="10.362" xlink:href="#a"/><linearGradient id="q" x1="-29.793" x2="37.743" xlink:href="#a"/><linearGradient id="r" x1="-42.285" x2="44.664" xlink:href="#a"/><linearGradient id="s" x1="-33.297" x2="35.983" xlink:href="#a"/><linearGradient id="t" x1="-9.721" x2="11.806" xlink:href="#a"/><linearGradient id="u" x1="-14.449" x2="11.388" xlink:href="#a"/><linearGradient id="v" x1="-37.852" x2="29.658" xlink:href="#a"/><linearGradient id="w" x1="-9.314" x2="9.064" xlink:href="#a"/><linearGradient id="x" x1="-36.563" x2="30.98" xlink:href="#a"/><linearGradient id="y" x1="-43.423" x2="43.518" xlink:href="#a"/><linearGradient id="z" x1="-34.792" x2="34.483" xlink:href="#a"/><linearGradient id="aa" x1="-10.748" x2="10.779" xlink:href="#a"/><linearGradient id="ab" x1="-0.748" x2="3.661" xlink:href="#a"/><linearGradient id="ac" x1="-33.916" x2="173.046" xlink:href="#a"/><linearGradient id="ad" x1="-14.984" x2="83.071" xlink:href="#a"/><linearGradient id="ae" x1="-2.657" x2="1.765" xlink:href="#a"/><linearGradient id="af" x1="-171.099" x2="35.565" xlink:href="#a"/><linearGradient id="ag" x1="-80.762" x2="16.135" xlink:href="#a"/><linearGradient id="ah" x1="-2.235" x2="25.902" xlink:href="#a"/><linearGradient id="ai" x1="-3.042" x2="22.481" xlink:href="#a"/><linearGradient id="aj" x1="-6.678" x2="34.336" xlink:href="#a"/><linearGradient id="ak" x1="-5.383" x2="22.759" xlink:href="#a"/><linearGradient id="al" x1="-7.483" x2="24.926" xlink:href="#a"/><linearGradient id="am" x1="-7.535" x2="19.463" xlink:href="#a"/><linearGradient id="an" x1="-8.103" x2="17.198" xlink:href="#a"/><linearGradient id="ao" x1="-9.81" x2="17.148" xlink:href="#a"/><linearGradient id="ap" x1="-6.752" x2="9.453" xlink:href="#a"/><linearGradient id="aq" x1="-12.996" x2="14.004" xlink:href="#a"/><linearGradient id="ar" x1="-14.088" x2="12.868" xlink:href="#a"/><linearGradient id="as" x1="-18.329" x2="14.201" xlink:href="#a"/><linearGradient id="at" x1="-15.785" x2="10.599" xlink:href="#a"/><linearGradient id="au" x1="-18.005" x2="8.994" xlink:href="#a"/><linearGradient id="av" x1="-25.113" x2="10.352" xlink:href="#a"/><linearGradient id="aw" x1="-21.577" x2="6.561" xlink:href="#a"/><linearGradient id="ax" x1="-26.134" x2="6.273" xlink:href="#a"/><linearGradient id="ay" x1="-21.476" x2="4.046" xlink:href="#a"/><linearGradient id="az" x1="-36.302" x2="4.711" xlink:href="#a"/></defs><path d="M140,96.24H0V0H140ZM6.337,89.9H133.663V6.337H6.337Z" fill="url(#a)"/><g transform="translate(1.011 1.012)"><path d="M142.927,99.169H4.95V4.953H142.927ZM9.264,94.856h129.35V9.267H9.264Z" transform="translate(-4.95 -4.953)" fill="#001c71"/></g><g transform="translate(2.112 2.113)"><path d="M146.113,102.356H10.338V10.341H146.113v92.015ZM12.451,100.244H144V12.453H12.451Z" transform="translate(-10.338 -10.341)" fill="url(#a)"/></g><g transform="translate(3.168 3.168)"><rect width="133.663" height="89.904" fill="#001c71"/></g><g transform="translate(32.909 11.252)"><g transform="translate(29.018 15.999)"><path d="M319.118,139.735c-.134.1-.353.2-.5.006,0,0-2.4-4.116-6.164-4.341v11.66a2.614,2.614,0,0,0,2.646,2.7s.1.857-.464.924h-6.847c-.561-.068-.463-.924-.463-.924a2.614,2.614,0,0,0,2.644-2.7V135.4c-3.768.226-6.164,4.341-6.164,4.341-.15.2-.37.1-.5-.006a.5.5,0,0,1-.133-.586l2.044-5.159c.172-.412.26-.473.4-.547.278-.158.568.051.73.237a1.4,1.4,0,0,0,.81.31h8.121a1.4,1.4,0,0,0,.81-.31c.162-.186.452-.395.729-.237.139.074.232.135.4.547l2.044,5.159A.5.5,0,0,1,319.118,139.735Z" transform="translate(-303.122 -133.388)" fill="url(#c)"/></g><g transform="translate(35.749)"><path d="M337.429,58.033s1.455-.152,1.347-1c-.091-.741-1.228-.89-1.347-1.958-.123,1.068-1.26,1.217-1.353,1.958C335.973,57.881,337.429,58.033,337.429,58.033Z" transform="translate(-336.071 -55.075)" fill="url(#d)"/></g><g transform="translate(0 2.959)"><path d="M233.579,96.779a1.768,1.768,0,0,0-1.625.907,1.146,1.146,0,0,0-.115.5,1.263,1.263,0,0,0,.424.921,3.008,3.008,0,0,1-.93-.052c-2.157-.458-3.284-2.97-5.3-5.2a2.171,2.171,0,0,0,1.341-.014,1.3,1.3,0,0,0,.862-.923c.005-.019.008-.036.012-.054.016-.094.02-.155.02-.155a1.121,1.121,0,0,0-2.209,0,.819.819,0,0,0,.177.5c-.352.221-.837-.066-1.128-.287A9.823,9.823,0,0,0,221,90.634a13.5,13.5,0,0,0-4.208-.508.815.815,0,0,1-.012-.185.753.753,0,0,1,0-.08,2.435,2.435,0,0,1,2.613-2.206c1.318,0,2.284.962,2.1,1.889a2.505,2.505,0,0,0,1.131-2.794c-.965-2.278-4.27-2.05-5.134-.983.338-.493,2.182-3.424.281-5.943a4.723,4.723,0,0,0-5.891-1.2,2.941,2.941,0,0,0-1.045.928c1.577-2.82-2.007-4.358-2.549-4.79-.475-.375-.63-.876-.386-1.2a.967.967,0,0,1,1.369-.133,1.643,1.643,0,0,0-1.123-1.382,3.793,3.793,0,0,0-3.581.617c-1.653,1.573-.214,2.948,1.178,4.047a3.179,3.179,0,0,0-1.1-.123,2.425,2.425,0,0,0-1.846.988,1.344,1.344,0,0,0-.171.279c-.022.043-.035.069-.035.069a1.458,1.458,0,0,0,1.11,1.9,1.867,1.867,0,0,0,2.252-.937,1.273,1.273,0,0,0,.05-.81,2.111,2.111,0,0,1,1.285.19c.531.328.435,1.135.418,1.249a1.648,1.648,0,0,1-.081.235,2.529,2.529,0,0,1-2.766.869c-1.878-.49-3.788-.906-5.426-1.42,1.444-.688,2.721-1.785,2.721-3.591.037-2.345-1.878-3.169-1.861-4.6s1.9-1.267,1.9-1.267-3.041-.853-3.984,1.092c-.943-1.946-3.984-1.092-3.984-1.092s1.883-.164,1.9,1.267-1.9,2.255-1.859,4.6c0,1.806,1.277,2.9,2.72,3.591-1.637.515-3.548.93-5.426,1.42a2.527,2.527,0,0,1-2.765-.869,1.631,1.631,0,0,1-.082-.235c-.016-.114-.111-.92.419-1.249a2.108,2.108,0,0,1,1.285-.19,1.275,1.275,0,0,0,.05.81,1.865,1.865,0,0,0,2.251.937,1.458,1.458,0,0,0,1.111-1.9s-.012-.026-.035-.069a1.342,1.342,0,0,0-.171-.279,2.429,2.429,0,0,0-1.847-.988,3.171,3.171,0,0,0-1.1.123c1.391-1.1,2.83-2.473,1.178-4.047a3.794,3.794,0,0,0-3.581-.617,1.644,1.644,0,0,0-1.125,1.382.967.967,0,0,1,1.369.133c.245.325.09.826-.385,1.2-.542.432-4.126,1.97-2.549,4.79a2.932,2.932,0,0,0-1.046-.928,4.724,4.724,0,0,0-5.891,1.2c-1.9,2.519-.056,5.45.281,5.943-.862-1.068-4.168-1.3-5.131.983a2.5,2.5,0,0,0,1.129,2.794c-.188-.928.779-1.889,2.1-1.889a2.434,2.434,0,0,1,2.611,2.206c0,.026,0,.054,0,.08a.825.825,0,0,1-.012.185,13.494,13.494,0,0,0-4.207.508,9.833,9.833,0,0,0-4.115,2.288c-.289.221-.776.508-1.127.287a.812.812,0,0,0,.178-.5,1.12,1.12,0,0,0-2.209,0,1.307,1.307,0,0,0,.019.155.333.333,0,0,0,.011.054,1.3,1.3,0,0,0,.863.923,2.172,2.172,0,0,0,1.341.014c-2.012,2.231-3.14,4.743-5.3,5.2a3.014,3.014,0,0,1-.93.052,1.263,1.263,0,0,0,.424-.921,1.14,1.14,0,0,0-.115-.5,1.771,1.771,0,0,0-1.625-.907,1.6,1.6,0,0,0-1.741,1.41.807.807,0,0,0,0,.09,1.382,1.382,0,0,0,.031.193.647.647,0,0,0,.033.113,1.548,1.548,0,0,0,.146.277,1.176,1.176,0,0,0,.293.321c.008.005.02.009.022.017.03.025.061.046.1.069l.028.019a2.768,2.768,0,0,0,.983.465c.127.031.256.055.383.074a6.514,6.514,0,0,0,1.062.066.059.059,0,0,0,.03,0,.223.223,0,0,0,.037,0l.126,0c.091,0,.18-.009.276-.017a6.883,6.883,0,0,0,4.806-2.9c-.02.03-.042.062-.062.094-1,1.57,1.077,2.9,2.938,2.827,0,0-1.1-.156-.939-1.063s1.467-1.095,2.873-.3a14.558,14.558,0,0,0,6.774,1.3c2.745-.059,8.513-1.808,11.88,0-.02-.017-.107-.088-.261-.192-1.3-.975-6.99-5.569-6.669-11.142.362-6.288,8.569-7.838,9.589-8.125.4-.112,1.471-.285,2.639-.672,1.168.387,2.243.56,2.638.672,1.021.287,9.228,1.838,9.59,8.125.321,5.573-5.369,10.167-6.669,11.142-.154.1-.241.176-.261.192,3.367-1.806,9.134-.057,11.88,0a14.561,14.561,0,0,0,6.774-1.3c1.406-.793,2.707-.605,2.873.3s-.939,1.063-.939,1.063c1.861.069,3.94-1.258,2.938-2.827-.02-.032-.043-.064-.062-.094a6.883,6.883,0,0,0,4.806,2.9c.1.007.185.014.275.017l.127,0a.218.218,0,0,0,.037,0,.059.059,0,0,0,.03,0,6.516,6.516,0,0,0,1.062-.066c.126-.019.256-.042.382-.074a2.772,2.772,0,0,0,.984-.465.229.229,0,0,0,.028-.019c.035-.023.065-.045.1-.069,0-.007.014-.011.022-.017a1.15,1.15,0,0,0,.293-.321,1.56,1.56,0,0,0,.146-.277.615.615,0,0,0,.033-.113,1.3,1.3,0,0,0,.03-.193.647.647,0,0,0,0-.09A1.6,1.6,0,0,0,233.579,96.779Zm-53.232-14.09a2.352,2.352,0,0,1,2.8-.919,2.187,2.187,0,0,1,1.381,2.01.148.148,0,0,0,.03-.026,4.992,4.992,0,0,0-1.594,4.021,8.347,8.347,0,0,0,1.029,3.5,10.347,10.347,0,0,0-3.358-1.056,4.889,4.889,0,0,0,.216-2.35l.014.007s-.206-.841.294-.959a.729.729,0,0,0,.281.332.976.976,0,0,0,1.214-.129A.656.656,0,0,0,182.5,86.1a1.05,1.05,0,0,0-.122-.064l-.044-.021a1.353,1.353,0,0,0-1.094.007,1.293,1.293,0,0,0-.671.745c-.022-.062-.04-.124-.065-.188A4.656,4.656,0,0,1,180.347,82.689Zm-7.116,13.185a3.6,3.6,0,0,0-3.548.788,10.015,10.015,0,0,1,5.879-3.646C174.107,93.395,172.915,94.477,173.231,95.875Zm14.716.314c.273.211.554.434.846.667a34.236,34.236,0,0,0,3.274,2.438,10.509,10.509,0,0,0-3.358-1h0c-.216-.031-.446-.057-.683-.079a.88.88,0,0,1-.7-.515,1.167,1.167,0,0,0,.52-.216A.832.832,0,0,0,187.946,96.188Zm-.214-.166a1.266,1.266,0,0,0-1.366.068,1.4,1.4,0,0,0-.123.116c-.013.015-.028.029-.04.043a1.105,1.105,0,0,0-.241,1.158,1.574,1.574,0,0,0,.668.738,19.134,19.134,0,0,0-2.017.1c-5.8.593-8.205-.551-7.932-2.146s2.557-1.118,2.7-.228a2.083,2.083,0,0,0-1.345-2.77,3.994,3.994,0,0,0-2.041-.178,13.4,13.4,0,0,1,2.072-.233c.35-.011.708-.009,1.07.007q.245.011.489.029A13.341,13.341,0,0,1,187.733,96.023ZM184.875,83.47a3.1,3.1,0,0,0,.824-3.729c1.022,1.578,2.9,1.578,4.186,1.345A14.162,14.162,0,0,0,184.875,83.47ZM198.2,73.056c.9,1.9,3.632,3.528,1.231,5.1a.735.735,0,0,0,.106-.474c-.091-.741-1.228-.89-1.347-1.958-.123,1.068-1.26,1.217-1.353,1.958a.732.732,0,0,0,.093.448C194.6,76.565,197.309,74.947,198.2,73.056Zm13.679,10.725a2.187,2.187,0,0,1,1.379-2.01,2.352,2.352,0,0,1,2.8.919,4.661,4.661,0,0,1-.154,3.888c-.027.064-.042.126-.065.188a1.291,1.291,0,0,0-.673-.745,1.352,1.352,0,0,0-1.093-.007l-.045.021a1.088,1.088,0,0,0-.121.064.658.658,0,0,0-.155,1.025.978.978,0,0,0,1.215.129.737.737,0,0,0,.281-.332c.5.118.3.959.3.959l.013-.007a4.876,4.876,0,0,0,.216,2.35,10.369,10.369,0,0,0-3.359,1.056,8.329,8.329,0,0,0,1.029-3.5,4.993,4.993,0,0,0-1.594-4.021A.165.165,0,0,0,211.881,83.781Zm-5.361-2.694c1.286.233,3.162.233,4.185-1.346a3.1,3.1,0,0,0,.824,3.729A14.168,14.168,0,0,0,206.52,81.087Zm1.862,17.124c-.237.022-.468.048-.685.079h0a10.521,10.521,0,0,0-3.359,1,34.164,34.164,0,0,0,3.276-2.438q.438-.349.845-.667a.831.831,0,0,0,.107,1.291,1.155,1.155,0,0,0,.52.216A.884.884,0,0,1,208.382,98.21Zm8.642-2.336c.141-.89,2.426-1.365,2.7.228s-2.137,2.739-7.932,2.146a19.209,19.209,0,0,0-2.018-.1,1.569,1.569,0,0,0,.67-.738,1.105,1.105,0,0,0-.241-1.158c-.012-.014-.027-.029-.04-.043a1.442,1.442,0,0,0-.123-.116,1.268,1.268,0,0,0-1.367-.068,13.346,13.346,0,0,1,8.109-3.293q.247-.018.489-.029.545-.025,1.072-.007a13.427,13.427,0,0,1,2.072.233,3.993,3.993,0,0,0-2.041.178A2.084,2.084,0,0,0,217.024,95.875Zm6.15,0c.316-1.4-.877-2.48-2.333-2.857a10.012,10.012,0,0,1,5.88,3.646A3.6,3.6,0,0,0,223.173,95.875Z" transform="translate(-161.084 -69.557)" fill="url(#e)"/></g></g><g transform="translate(22.456 48.36)"><path d="M114.349,236.965q1.523.047,2.493.047t2.5-.047q1.535-.046,2.459-.066a8.921,8.921,0,0,0,1.556-.188l.429,2.874a1,1,0,0,1-.609.131c-.121,0-.2-.03-.226-.094a2.584,2.584,0,0,0-.834-1.4,2.846,2.846,0,0,0-1.625-.367q-2.1,0-2.188.32a5.494,5.494,0,0,0-.2,1.765v10.5a5.377,5.377,0,0,0,.2,1.635q.022.13.609.272a4.249,4.249,0,0,0,.789.14c.06,0,.091.113.091.338a.816.816,0,0,1-.046.3l-.868-.056c-.383-.025-.737-.045-1.06-.056s-.636-.019-.936-.019q-.61,0-1.681.056t-1.319.075a.38.38,0,0,1-.09-.3c0-.225.029-.338.09-.338a4.214,4.214,0,0,0,.846-.131q.576-.131.643-.28a5,5,0,0,0,.18-1.559V240a4.346,4.346,0,0,0-.2-1.822q-.181-.319-2.143-.32a2.842,2.842,0,0,0-1.624.367,2.667,2.667,0,0,0-.857,1.38c-.015.076-.09.113-.226.113a.855.855,0,0,1-.587-.151l.428-2.855a8.926,8.926,0,0,0,1.557.188Q112.826,236.918,114.349,236.965Z" transform="translate(-109.916 -236.712)" fill="url(#f)"/><g transform="translate(14.651 2.323)"><path d="M195.1,259.954c.056,0,.084.119.084.358a.75.75,0,0,1-.042.262q-2.5-.113-2.644-.113c-.277,0-.569.007-.874.018s-.643.029-1.011.047l-.885.048a.341.341,0,0,1-.084-.262c0-.239.028-.358.084-.358a3.623,3.623,0,0,0,.781-.131c.353-.087.552-.181.593-.282a5.933,5.933,0,0,0,.167-1.578v-3.231l-.042-.074q-1.958-.039-2.748-.038a27.385,27.385,0,0,0-2.874.094v3.136a6.314,6.314,0,0,0,.187,1.69c.028.088.219.178.573.273a3.518,3.518,0,0,0,.719.141c.055,0,.084.119.084.358a.75.75,0,0,1-.042.262q-2.5-.113-2.645-.113c-.278,0-.57.007-.875.018s-.643.029-1.01.047l-.885.048a.34.34,0,0,1-.084-.262c0-.239.028-.358.084-.358a3.6,3.6,0,0,0,.78-.131q.531-.13.594-.282a5.933,5.933,0,0,0,.167-1.578v-7.248a5.1,5.1,0,0,0-.167-1.578q-.084-.151-.583-.291a3.046,3.046,0,0,0-.749-.141c-.055,0-.084-.094-.084-.283s.014-.312.042-.337c.07,0,.454.019,1.156.057s1.239.056,1.614.056q.166,0,2.666-.113a.9.9,0,0,1,.062.3c0,.214-.028.32-.084.32a3.74,3.74,0,0,0-.751.151c-.374.1-.575.194-.6.282a6.312,6.312,0,0,0-.167,1.653v2.742l.042.056q2.041.038,2.832.038.873,0,2.748-.038a.106.106,0,0,0,.042-.075v-2.8a5.1,5.1,0,0,0-.167-1.578c-.056-.1-.249-.2-.583-.291a3.046,3.046,0,0,0-.749-.141c-.054,0-.084-.094-.084-.283s.013-.312.043-.337q.1,0,1.155.057t1.614.056q.167,0,2.666-.113a.9.9,0,0,1,.062.3c0,.214-.028.32-.084.32a3.729,3.729,0,0,0-.749.151c-.375.1-.576.194-.6.282a6.309,6.309,0,0,0-.167,1.653v7.061a6.314,6.314,0,0,0,.187,1.69c.028.088.219.178.573.273A3.466,3.466,0,0,0,195.1,259.954Z" transform="translate(-181.631 -248.084)" fill="url(#g)"/></g><g transform="translate(29.353 2.324)"><path d="M256.429,248.2q.374,0,2.666-.113a1.12,1.12,0,0,1,.041.3c0,.214-.028.32-.084.32a3.923,3.923,0,0,0-.749.141c-.374.094-.57.19-.583.291a6.189,6.189,0,0,0-.166,1.653v4.32a4.794,4.794,0,0,0,.927,3.09,3.112,3.112,0,0,0,2.57,1.154,3.516,3.516,0,0,0,2.573-.948,4.276,4.276,0,0,0,.968-3.146V250.68a3.5,3.5,0,0,0-.208-1.5,1.489,1.489,0,0,0-.739-.328,4.055,4.055,0,0,0-.886-.16c-.056,0-.086-.086-.094-.263a.562.562,0,0,1,.053-.337q2.248.131,2.623.132.521,0,1.385-.066c.577-.045.934-.066,1.073-.066a.991.991,0,0,1,.041.3c0,.2-.028.3-.082.3a4.411,4.411,0,0,0-.9.141,1.393,1.393,0,0,0-.792.386,3.824,3.824,0,0,0-.229,1.558v4.413a7.258,7.258,0,0,1-.4,2.526,3.909,3.909,0,0,1-1.125,1.672,4.664,4.664,0,0,1-1.656.891,7.241,7.241,0,0,1-2.113.282,5.487,5.487,0,0,1-3.936-1.361,5.816,5.816,0,0,1-1.436-4.386v-4.094a4.685,4.685,0,0,0-.167-1.578c-.056-.1-.249-.2-.583-.291a3.046,3.046,0,0,0-.749-.141q-.084,0-.084-.283c0-.187.021-.3.062-.337Q256.3,248.2,256.429,248.2Z" transform="translate(-253.596 -248.089)" fill="url(#h)"/></g><g transform="translate(44.66 2.343)"><path d="M334.31,260.033a4.852,4.852,0,0,1-.927-.141c-.423-.094-.656-.217-.7-.367a5.3,5.3,0,0,1-.167-1.6v-2.648q0-.319.333-.32a1.455,1.455,0,0,1,.5.056.961.961,0,0,1,.365.157c.118.1.464.072.631.271s.292.506.423.688l.1.141a2.435,2.435,0,0,1,.966-.887,2.621,2.621,0,0,1,.505-.2c-.076-.114-.151-.228-.223-.345-.056-.087.2-.105.314-.143a3.993,3.993,0,0,0,1.771-1.277,3,3,0,0,0,.729-1.916,2.735,2.735,0,0,0-1.125-2.254,5.124,5.124,0,0,0-1.137-.6,6.571,6.571,0,0,0-2.362-.45q-.625,0-1.489.019c-.577.012-1.058.019-1.447.019s-1.3-.019-2.77-.056c-.055.038-.082.15-.082.337s.028.282.082.282a3.269,3.269,0,0,1,.8.161c.367.105.573.209.614.31a6.654,6.654,0,0,1,.125,1.54v7.1a6.714,6.714,0,0,1-.125,1.71q-.083.169-.614.292a3.956,3.956,0,0,1-.8.121c-.041,0-.063.1-.063.3a.592.592,0,0,0,.063.337l.416-.038c.278-.012.648-.029,1.114-.047s.886-.029,1.26-.029q.667,0,2.958.113a.961.961,0,0,0,.041-.32C334.392,260.141,334.365,260.033,334.31,260.033Zm-1.792-8.808q.022-1.859.249-1.953a3.731,3.731,0,0,1,1.208-.132q2.417,0,2.416,2.554a2.4,2.4,0,0,1-.614,1.709,1.856,1.856,0,0,1-1.386.657h-.541a2.906,2.906,0,0,1-.979-.131.524.524,0,0,1-.354-.544v-2.16Z" transform="translate(-328.521 -248.183)" fill="url(#i)"/></g><g transform="translate(57.313 2.212)"><path d="M390.7,250.883a2.867,2.867,0,0,1,1.312-2.376,4.853,4.853,0,0,1,2.956-.967,8.107,8.107,0,0,1,1.021.056c.292.038.7.115,1.219.235s.877.2,1.072.234a15.135,15.135,0,0,1,.249,2.892.223.223,0,0,1-.249.169q-.561,0-.6-.169a3.176,3.176,0,0,0-.9-1.69,2.47,2.47,0,0,0-1.875-.826,2.043,2.043,0,0,0-1.468.488,1.736,1.736,0,0,0-.509,1.314,1.908,1.908,0,0,0,.073.536,1.267,1.267,0,0,0,.292.5c.145.162.263.3.353.4a2.409,2.409,0,0,0,.521.4c.256.164.43.276.52.339s.3.184.625.365a6.446,6.446,0,0,0,.594.311,7.8,7.8,0,0,0,.7.4c.382.208.649.357.8.451a8.145,8.145,0,0,1,.667.479,2.8,2.8,0,0,1,.635.639,3.6,3.6,0,0,1,.365.76,2.862,2.862,0,0,1,.166.986A2.95,2.95,0,0,1,397.9,259.3a5.147,5.147,0,0,1-3.112.977c-.833,0-2.9-.113-3.941-1.129a8.068,8.068,0,0,1-.234-1.1,11.43,11.43,0,0,1-.157-1.343c.013-.1.125-.15.333-.15q.541,0,.6.15a3.374,3.374,0,0,0,.292.742,5.34,5.34,0,0,0,.572.864,2.69,2.69,0,0,0,.979.751,3.187,3.187,0,0,0,1.386.292,2.485,2.485,0,0,0,1.623-.526,1.919,1.919,0,0,0,.646-1.578,1.5,1.5,0,0,0-.135-.62,2.127,2.127,0,0,0-.313-.507,2.978,2.978,0,0,0-.52-.45q-.344-.244-.573-.375c-.152-.088-.379-.21-.676-.367s-.511-.265-.635-.329a1.488,1.488,0,0,0-.229-.15q-.6-.337-.916-.526t-.8-.554a3.93,3.93,0,0,1-.74-.686,3.5,3.5,0,0,1-.448-.789A2.6,2.6,0,0,1,390.7,250.883Z" transform="translate(-390.452 -247.54)" fill="url(#j)"/></g><g transform="translate(67.163 2.231)"><path d="M440.624,258.487a6.137,6.137,0,0,1,0-8.987,6.874,6.874,0,0,1,9.423,0,6.114,6.114,0,0,1,0,8.987,6.9,6.9,0,0,1-9.423,0Zm4.394-9.936a3.062,3.062,0,0,0-2.739,1.474,6.445,6.445,0,0,0-.947,3.558,8.446,8.446,0,0,0,.426,2.687,5.163,5.163,0,0,0,1.448,2.206,3.525,3.525,0,0,0,2.458.93,3.084,3.084,0,0,0,2.739-1.493,6.4,6.4,0,0,0,.968-3.559,8.663,8.663,0,0,0-.417-2.715,4.964,4.964,0,0,0-1.436-2.178A3.621,3.621,0,0,0,445.017,248.551Z" transform="translate(-438.666 -247.631)" fill="url(#k)"/></g><g transform="translate(80.511 0.453)"><path d="M515.333,242.143a6.238,6.238,0,0,0-.208-1.852c-.07-.185-.3-.331-.7-.44a3.81,3.81,0,0,0-.927-.162c-.056,0-.086-.112-.093-.336a.847.847,0,0,1,.052-.428q2.228.162,2.623.162c.362,0,.826-.027,1.4-.081s.923-.081,1.062-.081a1.059,1.059,0,0,1,.042.37c0,.263-.029.393-.083.393a3.636,3.636,0,0,0-.9.174,1.327,1.327,0,0,0-.792.474,5.937,5.937,0,0,0-.229,1.92v8.768q0,.833.084,3.239c-.056.061-.208.093-.457.093-.223,0-.446-.178-.667-.533l-8.287-12.214v9.368a7.107,7.107,0,0,0,.166,1.9c.07.185.326.344.77.473a3.933,3.933,0,0,0,.938.2c.041,0,.065.108.073.324a1.388,1.388,0,0,1-.032.439q-2.5-.138-2.6-.137-.561,0-1.385.057c-.548.038-.913.066-1.093.08a.628.628,0,0,1-.083-.392c0-.247.028-.371.083-.371a3.566,3.566,0,0,0,.947-.174,1.137,1.137,0,0,0,.761-.52,5.862,5.862,0,0,0,.208-1.944v-9.068a4.152,4.152,0,0,0-.229-1.689q-.083-.161-.719-.3a4.942,4.942,0,0,0-.927-.139c-.054,0-.086-.115-.093-.347a.7.7,0,0,1,.073-.44q2.186.116,2.477.116.688,0,1.874-.116a24.513,24.513,0,0,0,1.448,2.464q1.051,1.632,2.883,4.3t2.5,3.69a7.608,7.608,0,0,0,.041-.948v-6.292Z" transform="translate(-504.005 -238.927)" fill="url(#l)"/></g><g transform="translate(48.776 8.434)"><path d="M362.6,284.873c-4.586.5-6.054-.8-8.433-4.025-.932-1.262-1.484-1.928-1.808-2.281-.058-.085.036-.122.182-.176l.081-.032a2.7,2.7,0,0,1-.363-.367,2.144,2.144,0,0,1-.275.071,16.127,16.127,0,0,1-2.851.2,2.657,2.657,0,0,1-.284.243l-.182.209a2.173,2.173,0,0,1,.263-.033c.826-.027,1.852,1.425,2.751,2.741a9.48,9.48,0,0,0,6.6,4.356c2.949.316,4.624-.671,4.626-.865C362.908,284.808,362.6,284.873,362.6,284.873Z" transform="translate(-348.666 -277.993)" fill="url(#m)"/></g></g><g transform="translate(37.29 69.382)"><g transform="translate(23.352)"><g transform="translate(0 0.177)"><path d="M300.5,341.184l-.138.413s0,0-.009-.017a.1.1,0,0,0-.024-.041.109.109,0,0,0-.016-.026c-.13-.212-.517-.741-.975-.491a.536.536,0,0,0-.163.126l-.008.008a.823.823,0,0,0-.087.088c-.175.2-.333.491-.512.75-.247.349-.529.649-.945.612a.8.8,0,0,1-.759-.634,1.2,1.2,0,0,1,.054-.7,1.641,1.641,0,0,1,.179-.342.744.744,0,0,0,.046.258c.012.026.024.055.037.08a.445.445,0,0,0,.483.234.7.7,0,0,0,.342-.243c.45-.475,1.012-1.383,2.37-.187C300.417,341.1,300.458,341.143,300.5,341.184Z" transform="translate(-296.834 -340.479)" fill="url(#n)"/></g><g transform="translate(2.126 0.499)"><path d="M307.482,342.371a.936.936,0,0,0-.237.592,1.025,1.025,0,0,0,.422.943.533.533,0,0,0,.767-.373.641.641,0,0,0-.148-.592.421.421,0,0,0-.528-.106.389.389,0,0,1,.1-.283c.249-.287.736.174.784.3a1.12,1.12,0,0,0-.8-.787C307.652,342.029,307.592,342.139,307.482,342.371Z" transform="translate(-307.242 -342.055)" fill="url(#o)"/></g><g transform="translate(3.478)"><path d="M319.016,340.426a2.152,2.152,0,0,0-2.187-.609,1.51,1.51,0,0,0-.175.057,2.7,2.7,0,0,0-.914.534c-.37.335-.642.37-.845.244a.648.648,0,0,1-.208-.7.7.7,0,0,1,.288-.322,1.143,1.143,0,0,0-1.019,1.657.98.98,0,0,0,.889.67,1,1,0,0,0,.727-.374,1.721,1.721,0,0,0-.076,1.408,1.108,1.108,0,0,0,1.057.753,1.132,1.132,0,0,0,.733-.361,1.71,1.71,0,0,0,.357-1.275c-.066.206-.424.579-.747.371a1.076,1.076,0,0,1-.1-1.457.3.3,0,0,1,.03-.048,1.117,1.117,0,0,1,.1-.113,1.036,1.036,0,0,1,.206-.174.108.108,0,0,1,.025-.018.194.194,0,0,1,.046-.034A3.225,3.225,0,0,1,319.016,340.426Z" transform="translate(-313.861 -339.615)" fill="url(#p)"/></g><g transform="translate(3.96 2.224)"><path d="M317.589,351.713a.705.705,0,0,1-.748.371.87.87,0,0,1-.583-1.109s.126.532.586.481a.689.689,0,0,0,.525-.957A1.421,1.421,0,0,1,317.589,351.713Z" transform="translate(-316.219 -350.499)" fill="url(#q)"/></g><g transform="translate(8.24 0.104)"><path d="M338.257,340.3a.667.667,0,0,0-.993.109c-.017.03-.033.06-.046.087a.621.621,0,0,0,.08.618,1.377,1.377,0,0,0,.667.243,1.585,1.585,0,0,0-.13-.227.377.377,0,0,0-.062-.09.581.581,0,0,1-.05-.43A.476.476,0,0,1,338.257,340.3Z" transform="translate(-337.169 -340.126)" fill="url(#r)"/></g><g transform="translate(7.699 1.657)"><path d="M335.8,348.206s-.59-.847-1.1-.3c-.43.461.035,1.02.363.879a.349.349,0,0,0,.115-.549s.581-.061.587.621C335.761,348.858,336.02,348.413,335.8,348.206Z" transform="translate(-334.521 -347.723)" fill="url(#s)"/></g><g transform="translate(4.947 0.126)"><path d="M325.444,342.982a2.776,2.776,0,0,0-.306-1.545,1.589,1.589,0,0,0-.13-.227.377.377,0,0,0-.062-.09,1.8,1.8,0,0,0-.21-.261,1.763,1.763,0,0,0-.345-.283,2.391,2.391,0,0,0-1.842-.273,1.528,1.528,0,0,0-.175.048c-.357.122-.529.352-1.188.9s1.293.195,1.293.195a.205.205,0,0,1,.033-.043.208.208,0,0,1,.03-.043.642.642,0,0,1,.1-.106.734.734,0,0,1,.206-.161.138.138,0,0,1,.025-.017c.881-.483,2.147.307,2.168,1.681.021,1.326-.733,1.278-.733,1.278a.425.425,0,0,0-.6-.513.474.474,0,0,0-.2.647c.085.187.374.37.857.3A1.548,1.548,0,0,0,325.444,342.982Z" transform="translate(-321.049 -340.23)" fill="url(#t)"/></g></g><g transform="translate(32.818)"><g transform="translate(5.681 0.176)"><path d="M374.613,341.968a.8.8,0,0,1-.759.634c-.416.037-.7-.263-.94-.612-.179-.255-.338-.542-.513-.746a.888.888,0,0,0-.113-.117l-.012-.012a.778.778,0,0,0-.134-.1c-.461-.249-.849.279-.979.491a.094.094,0,0,0-.016.026.136.136,0,0,0-.025.041.025.025,0,0,0-.008.017l-.138-.413a1.594,1.594,0,0,1,.125-.113c1.362-1.2,1.924-.288,2.375.187a.7.7,0,0,0,.337.243.44.44,0,0,0,.479-.229.757.757,0,0,0,.041-.084.749.749,0,0,0,.046-.258,1.779,1.779,0,0,1,.179.342A1.2,1.2,0,0,1,374.613,341.968Z" transform="translate(-370.976 -340.477)" fill="url(#u)"/></g><g transform="translate(5.818 0.499)"><path d="M372.809,342.371a.93.93,0,0,1,.236.592,1.024,1.024,0,0,1-.42.943.534.534,0,0,1-.768-.373.641.641,0,0,1,.149-.592.421.421,0,0,1,.528-.106.388.388,0,0,0-.1-.283c-.249-.287-.736.174-.784.3a1.119,1.119,0,0,1,.8-.787C372.637,342.029,372.7,342.139,372.809,342.371Z" transform="translate(-371.645 -342.055)" fill="url(#v)"/></g><g transform="translate(0.715)"><path d="M346.666,340.426a2.149,2.149,0,0,1,2.186-.609,1.5,1.5,0,0,1,.175.057,2.718,2.718,0,0,1,.915.534c.369.335.642.37.844.244a.651.651,0,0,0,.209-.7.7.7,0,0,0-.289-.322,1.143,1.143,0,0,1,1.019,1.657.98.98,0,0,1-.889.67,1,1,0,0,1-.725-.374,1.726,1.726,0,0,1,.074,1.408,1.109,1.109,0,0,1-1.057.753,1.135,1.135,0,0,1-.733-.361,1.71,1.71,0,0,1-.357-1.275c.068.206.424.579.746.371a1.073,1.073,0,0,0,.1-1.457.426.426,0,0,0-.029-.048,1.351,1.351,0,0,0-.1-.113,1.035,1.035,0,0,0-.2-.174.224.224,0,0,0-.025-.018.232.232,0,0,0-.048-.034A3.218,3.218,0,0,0,346.666,340.426Z" transform="translate(-346.666 -339.615)" fill="url(#w)"/></g><g transform="translate(3.985 2.224)"><path d="M362.705,351.713a.705.705,0,0,0,.748.371.87.87,0,0,0,.583-1.109s-.126.532-.586.481a.687.687,0,0,1-.524-.957A1.423,1.423,0,0,0,362.705,351.713Z" transform="translate(-362.673 -350.499)" fill="url(#x)"/></g><g transform="translate(0.019 0.104)"><path d="M343.257,340.3a.667.667,0,0,1,.993.109c.017.03.033.06.047.087a.621.621,0,0,1-.08.618,1.377,1.377,0,0,1-.667.243,1.687,1.687,0,0,1,.13-.227.416.416,0,0,1,.062-.09.588.588,0,0,0,.052-.43A.478.478,0,0,0,343.257,340.3Z" transform="translate(-343.257 -340.126)" fill="url(#y)"/></g><g transform="translate(0.281 1.657)"><path d="M344.632,348.206s.592-.847,1.1-.3c.43.461-.035,1.02-.363.879a.35.35,0,0,1-.115-.549s-.581-.061-.587.621C344.671,348.858,344.412,348.413,344.632,348.206Z" transform="translate(-344.543 -347.723)" fill="url(#z)"/></g><g transform="translate(0 0.126)"><path d="M343.172,342.982a2.79,2.79,0,0,1,.306-1.545,1.693,1.693,0,0,1,.13-.227.416.416,0,0,1,.062-.09,1.8,1.8,0,0,1,.211-.261,1.713,1.713,0,0,1,.344-.283,2.391,2.391,0,0,1,1.842-.273,1.514,1.514,0,0,1,.175.048c.357.122.529.352,1.188.9s-1.293.195-1.293.195a.2.2,0,0,0-.033-.043.27.27,0,0,0-.029-.043.722.722,0,0,0-.1-.106.753.753,0,0,0-.2-.161c-.009-.007-.019-.012-.025-.017-.882-.483-2.149.307-2.17,1.681-.021,1.326.733,1.278.733,1.278a.426.426,0,0,1,.6-.513.473.473,0,0,1,.2.647c-.084.187-.373.37-.856.3A1.548,1.548,0,0,1,343.172,342.982Z" transform="translate(-343.166 -340.23)" fill="url(#aa)"/></g></g><g transform="translate(0 0.85)"><g transform="translate(1.597 0.119)"><path d="M211.777,345.056l-21.429-.253v-.167l21.484-.278A1.187,1.187,0,0,0,211.777,345.056Z" transform="translate(-190.348 -344.357)" fill-rule="evenodd" fill="url(#ab)"/></g><g transform="translate(1.048)"><path d="M187.881,344.707h0c-.123,0-.224-.069-.224-.151v-.631c0-.083.1-.151.224-.151h0c.132,0,.234.068.234.151v.631c0,.082-.1.151-.234.151Z" transform="translate(-187.657 -343.773)" fill-rule="evenodd" fill="url(#ac)"/></g><g transform="translate(0 0.137)"><path d="M183.017,345.1c-.275,0-.488-.151-.488-.328s.213-.33.488-.33.478.151.478.33-.214.328-.478.328Z" transform="translate(-182.529 -344.445)" fill-rule="evenodd" fill="url(#ad)"/></g><g transform="translate(42.436 0.119)"><path d="M411.665,344.635v.167l-21.367.253a1.2,1.2,0,0,0-.054-.7Z" transform="translate(-390.244 -344.356)" fill-rule="evenodd" fill="url(#ae)"/></g><g transform="translate(63.95)"><path d="M495.776,344.707h0c.133,0,.234-.069.234-.151v-.631c0-.083-.1-.151-.234-.151h0c-.123,0-.224.068-.224.151v.631c0,.082.1.151.224.151Z" transform="translate(-495.552 -343.773)" fill-rule="evenodd" fill="url(#af)"/></g><g transform="translate(64.477 0.137)"><path d="M498.625,345.1c.265,0,.488-.151.488-.328s-.223-.33-.488-.33-.49.151-.49.33.227.328.49.328Z" transform="translate(-498.135 -344.445)" fill-rule="evenodd" fill="url(#ag)"/></g></g></g><g transform="translate(30.34 79.359)"><path d="M149.585,388.524q.369.013.6.013c.156,0,.359,0,.607-.013s.447-.016.6-.019a1.825,1.825,0,0,0,.377-.055l.1.838a.213.213,0,0,1-.147.038c-.03,0-.048-.009-.055-.028a.8.8,0,0,0-.2-.408.605.605,0,0,0-.394-.106c-.34,0-.517.03-.531.093a1.886,1.886,0,0,0-.05.515v1.976a1.834,1.834,0,0,0,.05.475q0,.039.147.08a.843.843,0,0,0,.192.041c.014,0,.021.033.021.1a.291.291,0,0,1-.011.088l-.211-.017c-.094-.007-.179-.013-.257-.016s-.154-.006-.227-.006c-.1,0-.235.006-.408.017s-.281.018-.32.022a.127.127,0,0,1-.022-.088c0-.065.007-.1.022-.1a.864.864,0,0,0,.2-.038c.093-.025.145-.052.156-.082a1.688,1.688,0,0,0,.045-.454v-1.981a1.488,1.488,0,0,0-.05-.531c-.029-.062-.2-.093-.52-.093a.6.6,0,0,0-.394.106.808.808,0,0,0-.208.4c0,.022-.022.033-.055.033a.184.184,0,0,1-.142-.044l.1-.832a1.821,1.821,0,0,0,.377.055C149.141,388.508,149.339,388.515,149.585,388.524Z" transform="translate(-148.509 -388.45)" fill="url(#ah)"/><g transform="translate(3.763 0.038)"><path d="M168.922,388.664l1.15,2.868c.054.147.109.279.164.4a.268.268,0,0,0,.175.131.711.711,0,0,0,.208.049c.015,0,.022.033.022.1a.187.187,0,0,1-.011.082c-.438-.022-.668-.033-.69-.033s-.263.011-.711.033a.16.16,0,0,1-.022-.1c0-.053.008-.08.022-.08a.709.709,0,0,0,.181-.033c.076-.022.122-.048.137-.077a.153.153,0,0,0,.017-.071,1.273,1.273,0,0,0-.1-.378l-.192-.509a.061.061,0,0,0-.038-.021c-.117-.007-.273-.011-.471-.011s-.4.006-.623.017c-.022,0-.033.007-.033.022l-.208.508a1.577,1.577,0,0,0-.1.356.122.122,0,0,0,.06.109.559.559,0,0,0,.172.06.916.916,0,0,0,.167.027c.011,0,.017.029.017.077a.365.365,0,0,1-.011.1c-.018,0-.1-.006-.257-.017s-.277-.017-.372-.017-.207,0-.337.014l-.276.019a.116.116,0,0,1-.022-.082c0-.065,0-.1.011-.1a.783.783,0,0,0,.211-.046.339.339,0,0,0,.183-.107,2.6,2.6,0,0,0,.208-.427l1.018-2.463a1.188,1.188,0,0,1,.2-.394.137.137,0,0,1,.093-.038A.093.093,0,0,1,168.922,388.664Zm-.657,2.036q.192.016.395.016c.128,0,.277-.005.449-.016l.011-.022-.416-1.095-.449,1.095C168.254,390.693,168.257,390.7,168.265,390.7Z" transform="translate(-166.929 -388.636)" fill="url(#ai)"/></g><g transform="translate(7.899 0.022)"><path d="M187.238,389.531a.864.864,0,0,1,.345-.692,1.2,1.2,0,0,1,.777-.282,1.839,1.839,0,0,1,.268.017,3.214,3.214,0,0,1,.32.068c.137.035.231.058.282.068a4.889,4.889,0,0,1,.066.843.06.06,0,0,1-.066.05c-.1,0-.151-.017-.159-.05a.967.967,0,0,0-.235-.493.622.622,0,0,0-.493-.241.505.505,0,0,0-.386.142.536.536,0,0,0-.134.383.626.626,0,0,0,.019.156.372.372,0,0,0,.077.144l.093.118a.641.641,0,0,0,.137.118c.068.047.113.081.136.1s.079.055.164.107a1.581,1.581,0,0,0,.156.09,1.855,1.855,0,0,0,.184.118c.1.06.17.1.211.131s.1.074.175.139a.8.8,0,0,1,.167.186,1.122,1.122,0,0,1,.1.221.92.92,0,0,1,.044.288.886.886,0,0,1-.353.722,1.265,1.265,0,0,1-.818.285,5.14,5.14,0,0,1-1.007-.152,4.929,4.929,0,0,1-.091-.5,3.728,3.728,0,0,1-.04-.392q0-.044.087-.044c.095,0,.148.015.159.044a1.044,1.044,0,0,0,.077.216,1.632,1.632,0,0,0,.151.252.714.714,0,0,0,.257.219.774.774,0,0,0,.364.085.613.613,0,0,0,.426-.153.588.588,0,0,0,.17-.46.487.487,0,0,0-.035-.18.661.661,0,0,0-.082-.148.834.834,0,0,0-.137-.131c-.06-.047-.11-.084-.151-.109s-.1-.061-.178-.107l-.167-.1a.33.33,0,0,0-.06-.044c-.105-.066-.186-.116-.241-.153a2.593,2.593,0,0,1-.21-.161,1.058,1.058,0,0,1-.194-.2,1.087,1.087,0,0,1-.118-.23A.837.837,0,0,1,187.238,389.531Z" transform="translate(-187.172 -388.557)" fill="url(#aj)"/></g><g transform="translate(10.594)"><path d="M201.442,388.524q.368.013.6.013c.156,0,.359,0,.607-.013s.447-.016.6-.019a1.823,1.823,0,0,0,.377-.055l.1.838a.218.218,0,0,1-.149.038c-.029,0-.047-.009-.055-.028a.791.791,0,0,0-.2-.408.6.6,0,0,0-.394-.106c-.34,0-.516.03-.531.093a1.9,1.9,0,0,0-.049.515v1.976a1.848,1.848,0,0,0,.049.475q.006.039.147.08a.843.843,0,0,0,.192.041c.015,0,.021.033.021.1a.267.267,0,0,1-.011.088l-.211-.017c-.093-.007-.179-.013-.257-.016s-.154-.006-.227-.006c-.1,0-.235.006-.409.017s-.28.018-.32.022a.127.127,0,0,1-.022-.088c0-.065.008-.1.022-.1a.866.866,0,0,0,.206-.038c.093-.025.145-.052.155-.082a1.722,1.722,0,0,0,.044-.454v-1.981a1.5,1.5,0,0,0-.049-.531c-.029-.062-.2-.093-.52-.093a.6.6,0,0,0-.394.106.81.81,0,0,0-.208.4c0,.022-.022.033-.055.033a.183.183,0,0,1-.142-.044l.1-.832a1.824,1.824,0,0,0,.378.055C201,388.508,201.2,388.515,201.442,388.524Z" transform="translate(-200.366 -388.45)" fill="url(#ak)"/></g><g transform="translate(14.347 0.044)"><path d="M219.484,388.7c.161,0,.443-.007.849-.019s.711-.019.919-.019q.022.164.088.457c.044.195.068.3.072.32a.17.17,0,0,1-.115.027.075.075,0,0,1-.077-.038.687.687,0,0,0-.7-.487h-.285c-.269,0-.409.024-.415.072a2.2,2.2,0,0,0-.033.443v.859c0,.022.081.033.241.033h.306a1.38,1.38,0,0,0,.378-.028c.04-.018.07-.082.093-.192.011-.055.021-.1.032-.137s.033-.038.087-.038a.152.152,0,0,1,.1.027v1.034a.157.157,0,0,1-.1.022c-.046,0-.076-.014-.087-.044a1.765,1.765,0,0,0-.068-.219.33.33,0,0,0-.038-.076l-.046-.033a1.508,1.508,0,0,0-.5-.044q-.394,0-.394.044v.849a1.5,1.5,0,0,0,.049.443c.019.048.143.072.373.072h.2a1.472,1.472,0,0,0,.651-.115.62.62,0,0,0,.2-.192,1.137,1.137,0,0,0,.17-.334c0-.022.029-.033.077-.033a.239.239,0,0,1,.154.033c-.012.032-.038.107-.08.224s-.074.2-.1.266-.046.133-.072.221a1.427,1.427,0,0,0-.049.214q-.219,0-.906-.017t-.967-.005l-.728.022a.148.148,0,0,1-.016-.088c0-.062.005-.094.016-.094a.867.867,0,0,0,.208-.036c.092-.023.145-.052.159-.085a1.983,1.983,0,0,0,.038-.5v-2.069a1.755,1.755,0,0,0-.038-.45c-.011-.04-.062-.073-.154-.1a.885.885,0,0,0-.219-.038c-.015,0-.021-.027-.021-.082a.148.148,0,0,1,.021-.1Q219.118,388.7,219.484,388.7Z" transform="translate(-218.735 -388.665)" fill="url(#al)"/></g><g transform="translate(18.912 0.027)"><path d="M241.591,391.748a1.926,1.926,0,0,1,0-2.619,1.68,1.68,0,0,1,2.478,0,1.916,1.916,0,0,1,0,2.619,1.687,1.687,0,0,1-2.478,0Zm1.155-2.9a.791.791,0,0,0-.72.43,2.036,2.036,0,0,0-.248,1.037,2.719,2.719,0,0,0,.111.782,1.53,1.53,0,0,0,.381.643.879.879,0,0,0,.646.271.794.794,0,0,0,.72-.435,2.016,2.016,0,0,0,.255-1.036,2.775,2.775,0,0,0-.11-.792,1.47,1.47,0,0,0-.377-.635A.9.9,0,0,0,242.747,388.852Z" transform="translate(-241.078 -388.584)" fill="url(#am)"/></g><g transform="translate(22.811 0.055)"><path d="M260.908,388.753q.1,0,.7-.032a.327.327,0,0,1,.012.087c0,.062-.008.093-.022.093a.93.93,0,0,0-.2.041c-.1.027-.15.056-.154.085a1.992,1.992,0,0,0-.044.481v1.259a1.5,1.5,0,0,0,.244.9.786.786,0,0,0,.675.336.873.873,0,0,0,.676-.277,1.335,1.335,0,0,0,.255-.917v-1.335a1.132,1.132,0,0,0-.054-.438.388.388,0,0,0-.195-.1.963.963,0,0,0-.232-.047c-.014,0-.024-.026-.025-.077a.186.186,0,0,1,.013-.1c.4.025.625.038.691.038.09,0,.212-.006.363-.019s.245-.019.281-.019a.29.29,0,0,1,.012.087c0,.058-.008.088-.022.088a1.058,1.058,0,0,0-.235.04.356.356,0,0,0-.208.113,1.231,1.231,0,0,0-.06.454v1.286a2.285,2.285,0,0,1-.1.737,1.136,1.136,0,0,1-.3.487,1.193,1.193,0,0,1-.435.26,1.745,1.745,0,0,1-.556.082,1.36,1.36,0,0,1-1.034-.4,1.809,1.809,0,0,1-.377-1.278v-1.194a1.449,1.449,0,0,0-.045-.46c-.014-.029-.065-.058-.153-.085a.738.738,0,0,0-.2-.041c-.014,0-.021-.028-.021-.082s.005-.088.016-.1Z" transform="translate(-260.164 -388.72)" fill="url(#an)"/></g><g transform="translate(26.946 0.06)"><path d="M281.927,388.751a1.587,1.587,0,0,1,.3.03,1.675,1.675,0,0,1,.324.1,1.34,1.34,0,0,1,.3.175.769.769,0,0,1,.215.274.875.875,0,0,1,.081.383.934.934,0,0,1-.191.558,1.054,1.054,0,0,1-.465.372c-.029.011-.036.029-.021.055a6.5,6.5,0,0,0,.613.931,2.383,2.383,0,0,0,.412.4.7.7,0,0,0,.409.166.156.156,0,0,1,.021.088.218.218,0,0,1-.021.1,1.071,1.071,0,0,1-.17.011,1.825,1.825,0,0,1-.507-.066,1.162,1.162,0,0,1-.394-.194,2.12,2.12,0,0,1-.276-.249,2.461,2.461,0,0,1-.231-.306c-.05-.073-.109-.159-.175-.257L282,391.1c-.035-.053-.074-.109-.118-.166a.942.942,0,0,0-.113-.132.276.276,0,0,0-.09-.06.342.342,0,0,0-.131-.017c-.058,0-.087.031-.087.093v.772a1.7,1.7,0,0,0,.044.465c.011.045.072.08.184.107a1.1,1.1,0,0,0,.243.041c.015,0,.022.031.022.094a.289.289,0,0,1-.012.093q-.6-.032-.777-.032c-.1,0-.208,0-.33.008l-.293.013-.11.011a.192.192,0,0,1-.016-.1c0-.058.005-.088.016-.088a.893.893,0,0,0,.211-.036c.093-.023.147-.052.162-.085a2.183,2.183,0,0,0,.033-.5v-2.069a2.215,2.215,0,0,0-.033-.45c-.011-.029-.065-.059-.162-.09a.82.82,0,0,0-.211-.047c-.014,0-.021-.027-.021-.081s.007-.087.021-.1c.387.011.63.017.728.017s.229,0,.381-.005S281.818,388.751,281.927,388.751Zm-.087.274a.9.9,0,0,0-.317.038c-.041.019-.062.208-.066.57v.629a.153.153,0,0,0,.093.159.709.709,0,0,0,.257.038h.143a.471.471,0,0,0,.363-.191.749.749,0,0,0,.162-.5Q282.475,389.024,281.84,389.024Z" transform="translate(-280.406 -388.745)" fill="url(#ao)"/></g><g transform="translate(31.943 0.055)"><path d="M305.615,388.753c.04,0,.261-.011.662-.032a.89.89,0,0,1,.009.1c0,.047-.005.073-.02.076a.563.563,0,0,0-.088.008.3.3,0,0,0-.111.049.128.128,0,0,0-.064.113.7.7,0,0,0,.1.29l1.073,2.119c.012.019.025.022.041.013a.074.074,0,0,0,.036-.036l.4-.777-.585-1.182a2.311,2.311,0,0,0-.28-.465.369.369,0,0,0-.145-.093.465.465,0,0,0-.172-.038c-.015,0-.022-.031-.022-.093a.142.142,0,0,1,.017-.087c.46.022.7.032.723.032s.244-.011.646-.032a.4.4,0,0,1,.013.1c0,.047,0,.073-.013.076a.506.506,0,0,0-.1.011.264.264,0,0,0-.106.052.126.126,0,0,0-.054.107.748.748,0,0,0,.1.285l.334.684.322-.662a.765.765,0,0,0,.1-.3c0-.066-.044-.112-.134-.14a.813.813,0,0,0-.232-.04c-.014,0-.022-.026-.022-.077a.176.176,0,0,1,.017-.1c.321.022.521.032.6.032s.159,0,.227-.005.139-.008.216-.014l.186-.013a.312.312,0,0,1,.012.1c0,.046-.007.07-.017.074a.655.655,0,0,0-.2.049.442.442,0,0,0-.19.115,2.667,2.667,0,0,0-.312.514l-.4.81.531,1.084c.021.037.045.028.072-.027q.109-.258.515-1.111c.269-.569.418-.883.443-.941a.841.841,0,0,0,.1-.307q0-.1-.131-.142a.713.713,0,0,0-.219-.044c-.015,0-.022-.026-.025-.077a.142.142,0,0,1,.02-.1q.481.032.6.032c.082,0,.155,0,.221-.005s.135-.008.208-.014l.186-.013a.391.391,0,0,1,.011.109c0,.043-.007.066-.021.066a.575.575,0,0,0-.188.047.525.525,0,0,0-.184.107,2.429,2.429,0,0,0-.317.52l-1.253,2.654a.357.357,0,0,1-.1.131.172.172,0,0,1-.1.044.074.074,0,0,1-.054-.022l-.668-1.346-.623,1.193a.408.408,0,0,1-.1.134.137.137,0,0,1-.1.041.074.074,0,0,1-.054-.022l-1.451-2.879a2.977,2.977,0,0,0-.284-.477.307.307,0,0,0-.151-.087.636.636,0,0,0-.172-.033c-.015,0-.021-.029-.021-.088a.158.158,0,0,1,.016-.093Q305.578,388.753,305.615,388.753Z" transform="translate(-304.866 -388.721)" fill="url(#ap)"/></g><g transform="translate(38.07 0.027)"><path d="M335.372,391.748a1.923,1.923,0,0,1,0-2.619,1.679,1.679,0,0,1,2.476,0,1.916,1.916,0,0,1,0,2.619,1.686,1.686,0,0,1-2.476,0Zm1.155-2.9a.788.788,0,0,0-.72.43,2.036,2.036,0,0,0-.249,1.037,2.67,2.67,0,0,0,.113.782,1.515,1.515,0,0,0,.381.643.874.874,0,0,0,.646.271.793.793,0,0,0,.719-.435,2.016,2.016,0,0,0,.255-1.036,2.782,2.782,0,0,0-.109-.792,1.461,1.461,0,0,0-.378-.635A.9.9,0,0,0,336.527,388.852Z" transform="translate(-334.857 -388.584)" fill="url(#aq)"/></g><g transform="translate(41.981 0.06)"><path d="M355.522,388.751a1.586,1.586,0,0,1,.3.03,1.67,1.67,0,0,1,.324.1,1.339,1.339,0,0,1,.3.175.783.783,0,0,1,.215.274.872.872,0,0,1,.081.383.932.932,0,0,1-.191.558,1.054,1.054,0,0,1-.465.372c-.029.011-.036.029-.021.055a6.459,6.459,0,0,0,.613.931,2.376,2.376,0,0,0,.412.4.7.7,0,0,0,.409.166.156.156,0,0,1,.021.088.215.215,0,0,1-.021.1,1.072,1.072,0,0,1-.17.011,1.818,1.818,0,0,1-.507-.066,1.166,1.166,0,0,1-.394-.194,2.122,2.122,0,0,1-.276-.249,2.482,2.482,0,0,1-.231-.306c-.05-.073-.109-.159-.175-.257l-.15-.227c-.035-.053-.074-.109-.118-.166a.943.943,0,0,0-.113-.132.274.274,0,0,0-.09-.06.341.341,0,0,0-.131-.017q-.087,0-.087.093v.772a1.706,1.706,0,0,0,.044.465c.011.045.072.08.183.107a1.126,1.126,0,0,0,.244.041c.014,0,.022.031.022.094a.289.289,0,0,1-.012.093c-.4-.022-.661-.032-.777-.032-.1,0-.208,0-.33.008l-.293.013-.11.011a.192.192,0,0,1-.016-.1c0-.058.005-.088.016-.088a.893.893,0,0,0,.211-.036c.093-.023.147-.052.162-.085a2.183,2.183,0,0,0,.033-.5v-2.069a2.2,2.2,0,0,0-.033-.45c-.011-.029-.065-.059-.162-.09a.82.82,0,0,0-.211-.047c-.014,0-.021-.027-.021-.081s.007-.087.021-.1c.387.011.63.017.728.017s.229,0,.38-.005S355.413,388.751,355.522,388.751Zm-.088.274a.906.906,0,0,0-.317.038c-.041.019-.062.208-.066.57v.629a.153.153,0,0,0,.093.159.709.709,0,0,0,.257.038h.143a.471.471,0,0,0,.363-.191.75.75,0,0,0,.162-.5Q356.07,389.024,355.435,389.024Z" transform="translate(-354.001 -388.745)" fill="url(#ar)"/></g><g transform="translate(45.849 0.056)"><path d="M373.97,389.509v2.058a1.6,1.6,0,0,0,.049.438c.019.048.142.072.373.072h.2a1.468,1.468,0,0,0,.651-.115.626.626,0,0,0,.2-.192,1.168,1.168,0,0,0,.17-.334c0-.022.029-.033.077-.033a.232.232,0,0,1,.152.033q-.016.049-.08.224c-.041.116-.073.2-.1.266s-.045.133-.072.221a1.634,1.634,0,0,0-.049.214q-.219,0-.906-.017t-.966-.005l-.728.022a.147.147,0,0,1-.016-.088c0-.062.005-.094.016-.094a.866.866,0,0,0,.208-.036c.09-.023.143-.052.158-.085a1.924,1.924,0,0,0,.038-.5v-2.069a1.677,1.677,0,0,0-.044-.466c-.014-.029-.065-.058-.153-.085a.737.737,0,0,0-.2-.041c-.014,0-.021-.028-.021-.082s0-.091.011-.1.119.005.3.017.325.016.424.016q.044,0,.7-.033a.29.29,0,0,1,.017.087c0,.062-.008.093-.022.093a.9.9,0,0,0-.2.044c-.1.029-.151.056-.158.082A2.038,2.038,0,0,0,373.97,389.509Z" transform="translate(-372.93 -388.722)" fill="url(#as)"/></g><g transform="translate(49.146 0.06)"><path d="M389.821,388.763h.945a1.834,1.834,0,0,1,1.394.525,1.734,1.734,0,0,1,.5,1.237,1.785,1.785,0,0,1-1.9,1.855c-.077,0-.227,0-.451-.011s-.386-.011-.484-.011l-.728.022c-.012-.011-.017-.04-.017-.088,0-.062.005-.094.017-.094a.878.878,0,0,0,.208-.036c.09-.023.143-.052.158-.085a1.994,1.994,0,0,0,.038-.5v-2.069a1.757,1.757,0,0,0-.038-.45c-.011-.04-.063-.073-.153-.1a.881.881,0,0,0-.22-.038c-.013,0-.021-.027-.021-.082a.157.157,0,0,1,.021-.1C389.333,388.757,389.576,388.763,389.821,388.763Zm.3.7v2.146a.89.89,0,0,0,.061.405,1.34,1.34,0,0,0,.667.087q1.112,0,1.111-1.6a1.77,1.77,0,0,0-.3-1.04.977.977,0,0,0-.85-.427h-.028q-.525,0-.592.087A.6.6,0,0,0,390.121,389.463Z" transform="translate(-389.071 -388.746)" fill="url(#at)"/></g><g transform="translate(55.646 0.027)"><path d="M421.4,391.748a1.927,1.927,0,0,1,0-2.619,1.68,1.68,0,0,1,2.478,0,1.916,1.916,0,0,1,0,2.619,1.687,1.687,0,0,1-2.478,0Zm1.155-2.9a.787.787,0,0,0-.719.43,2.036,2.036,0,0,0-.249,1.037,2.677,2.677,0,0,0,.113.782,1.513,1.513,0,0,0,.379.643.879.879,0,0,0,.646.271.794.794,0,0,0,.72-.435,2.016,2.016,0,0,0,.255-1.036,2.777,2.777,0,0,0-.11-.792,1.468,1.468,0,0,0-.377-.635A.9.9,0,0,0,422.553,388.852Z" transform="translate(-420.885 -388.584)" fill="url(#au)"/></g><g transform="translate(59.551 0.044)"><path d="M440.78,392.284c-.11,0-.227,0-.352.009s-.22.011-.29.019l-.109.006a.149.149,0,0,1-.016-.088c0-.062.005-.094.016-.094a.869.869,0,0,0,.208-.036c.092-.023.143-.052.158-.085a1.9,1.9,0,0,0,.04-.5v-2.069a1.677,1.677,0,0,0-.04-.45c-.011-.04-.061-.073-.152-.1a.887.887,0,0,0-.219-.038c-.015,0-.021-.027-.021-.081a.149.149,0,0,1,.021-.1c.237.015.477.022.723.022q.256.005.867-.017t.9-.022q.022.164.087.457c.044.195.068.3.072.32a.169.169,0,0,1-.115.027c-.04,0-.066-.013-.077-.038a.687.687,0,0,0-.7-.487H441.5c-.271,0-.408.024-.415.072a2.415,2.415,0,0,0-.028.443v.859c0,.022.08.033.24.033h.3a1.364,1.364,0,0,0,.377-.028c.041-.018.072-.082.093-.192.012-.055.022-.1.033-.137s.033-.038.088-.038a.152.152,0,0,1,.1.027v1.034a.16.16,0,0,1-.1.022c-.048,0-.077-.014-.088-.045a1.7,1.7,0,0,0-.068-.219.388.388,0,0,0-.038-.076l-.047-.033a1.512,1.512,0,0,0-.5-.044q-.388,0-.389.044v.859a1.351,1.351,0,0,0,.06.454c.014.036.081.071.2.1a1.065,1.065,0,0,0,.235.049c.019,0,.028.031.028.094a.149.149,0,0,1-.017.088Q440.9,392.284,440.78,392.284Z" transform="translate(-440.003 -388.666)" fill="url(#av)"/></g><g transform="translate(65.114)"><path d="M468.306,388.524q.37.013.6.013c.158,0,.36,0,.608-.013s.447-.016.6-.019a1.823,1.823,0,0,0,.378-.055l.105.838a.218.218,0,0,1-.149.038c-.029,0-.048-.009-.054-.028a.8.8,0,0,0-.2-.408.6.6,0,0,0-.394-.106c-.339,0-.517.03-.531.093a1.891,1.891,0,0,0-.05.515v1.976a1.842,1.842,0,0,0,.05.475c0,.026.053.053.147.08a.845.845,0,0,0,.192.041c.013,0,.021.033.021.1a.311.311,0,0,1-.011.088l-.211-.017c-.093-.007-.179-.013-.257-.016s-.154-.006-.227-.006c-.1,0-.235.006-.409.017s-.28.018-.32.022a.127.127,0,0,1-.022-.088c0-.065.008-.1.022-.1a.857.857,0,0,0,.2-.038c.094-.025.146-.052.157-.082a1.723,1.723,0,0,0,.044-.454v-1.981a1.5,1.5,0,0,0-.049-.531c-.029-.062-.2-.093-.52-.093a.6.6,0,0,0-.394.106.805.805,0,0,0-.208.4c0,.022-.021.033-.056.033a.185.185,0,0,1-.142-.044l.1-.832a1.82,1.82,0,0,0,.377.055C467.862,388.508,468.061,388.515,468.306,388.524Z" transform="translate(-467.231 -388.45)" fill="url(#aw)"/></g><g transform="translate(68.865 0.044)"><path d="M486.344,388.7q.241,0,.849-.019t.919-.019q.022.164.088.457l.072.32a.17.17,0,0,1-.115.027c-.04,0-.066-.013-.077-.038a.688.688,0,0,0-.7-.487h-.285q-.406,0-.415.072a2.207,2.207,0,0,0-.033.443v.859c0,.022.08.033.24.033h.308a1.362,1.362,0,0,0,.377-.028c.041-.018.072-.082.093-.192.012-.055.022-.1.033-.137s.033-.038.087-.038a.152.152,0,0,1,.105.027v1.034a.161.161,0,0,1-.105.022c-.048,0-.075-.014-.087-.044a1.759,1.759,0,0,0-.068-.219.331.331,0,0,0-.038-.076l-.047-.033a1.512,1.512,0,0,0-.5-.044q-.394,0-.394.044v.849a1.456,1.456,0,0,0,.049.443c.019.048.142.072.373.072h.2a1.464,1.464,0,0,0,.651-.115.626.626,0,0,0,.2-.192,1.171,1.171,0,0,0,.17-.334c0-.022.029-.033.077-.033a.231.231,0,0,1,.152.033q-.016.049-.079.224c-.041.116-.073.2-.1.266s-.045.133-.07.221a1.488,1.488,0,0,0-.05.214c-.146,0-.447-.006-.906-.017s-.78-.013-.966-.005l-.728.022a.148.148,0,0,1-.016-.088c0-.062.005-.094.016-.094a.87.87,0,0,0,.208-.036c.091-.023.143-.052.158-.085a1.9,1.9,0,0,0,.04-.5v-2.069a1.676,1.676,0,0,0-.04-.45c-.011-.04-.061-.073-.153-.1a.883.883,0,0,0-.219-.038c-.015,0-.022-.027-.022-.082a.148.148,0,0,1,.022-.1C485.857,388.7,486.1,388.7,486.344,388.7Z" transform="translate(-485.593 -388.665)" fill="url(#ax)"/></g><g transform="translate(72.185 0.038)"><path d="M503.834,388.664l1.15,2.868c.055.147.109.279.163.4a.271.271,0,0,0,.175.131.715.715,0,0,0,.208.049c.014,0,.022.033.022.1a.171.171,0,0,1-.012.082c-.438-.022-.667-.033-.689-.033s-.263.011-.711.033a.155.155,0,0,1-.022-.1c0-.053.008-.08.022-.08a.7.7,0,0,0,.18-.033c.077-.022.122-.048.136-.077a.145.145,0,0,0,.017-.071,1.288,1.288,0,0,0-.1-.378l-.191-.509a.064.064,0,0,0-.038-.021c-.117-.007-.275-.011-.471-.011s-.406.006-.625.017c-.021,0-.032.007-.032.022l-.208.508a1.608,1.608,0,0,0-.1.356.123.123,0,0,0,.061.109.561.561,0,0,0,.173.06.915.915,0,0,0,.167.027c.011,0,.016.029.016.077a.4.4,0,0,1-.011.1c-.019,0-.105-.006-.257-.017s-.277-.017-.373-.017-.207,0-.337.014l-.276.019a.117.117,0,0,1-.022-.082c0-.065,0-.1.012-.1a.781.781,0,0,0,.211-.046.342.342,0,0,0,.183-.107,2.708,2.708,0,0,0,.208-.427l1.017-2.463a1.222,1.222,0,0,1,.2-.394.138.138,0,0,1,.093-.038A.1.1,0,0,1,503.834,388.664Zm-.658,2.036c.129.011.26.016.4.016s.277-.005.448-.016l.011-.022-.415-1.095-.449,1.095C503.166,390.693,503.17,390.7,503.177,390.7Z" transform="translate(-501.841 -388.636)" fill="url(#ay)"/></g><g transform="translate(76.32 0.022)"><path d="M522.15,389.531a.862.862,0,0,1,.345-.692,1.2,1.2,0,0,1,.777-.282,1.845,1.845,0,0,1,.268.017,3.2,3.2,0,0,1,.32.068c.138.035.231.058.283.068a4.9,4.9,0,0,1,.065.843.059.059,0,0,1-.065.05q-.147,0-.159-.05a.956.956,0,0,0-.235-.493.623.623,0,0,0-.493-.241.508.508,0,0,0-.386.142.539.539,0,0,0-.134.383.6.6,0,0,0,.02.156.371.371,0,0,0,.077.144l.093.118a.621.621,0,0,0,.137.118c.068.047.113.081.137.1s.078.055.164.107a1.6,1.6,0,0,0,.155.09,1.983,1.983,0,0,0,.184.118c.1.06.17.1.211.131s.1.074.175.139a.8.8,0,0,1,.167.186,1.132,1.132,0,0,1,.1.221.915.915,0,0,1,.044.288.889.889,0,0,1-.353.722,1.269,1.269,0,0,1-.818.285,5.145,5.145,0,0,1-1.008-.152,4.851,4.851,0,0,1-.09-.5,3.556,3.556,0,0,1-.041-.392c0-.029.033-.044.088-.044q.143,0,.159.044a1.021,1.021,0,0,0,.077.216,1.576,1.576,0,0,0,.15.252.717.717,0,0,0,.257.219.776.776,0,0,0,.365.085.611.611,0,0,0,.426-.153.585.585,0,0,0,.17-.46.5.5,0,0,0-.035-.18.652.652,0,0,0-.082-.148.827.827,0,0,0-.138-.131c-.06-.047-.11-.084-.15-.109s-.1-.061-.178-.107-.134-.078-.167-.1a.334.334,0,0,0-.06-.044c-.106-.066-.187-.116-.241-.153s-.125-.09-.211-.161a1.046,1.046,0,0,1-.193-.2,1.058,1.058,0,0,1-.118-.23A.823.823,0,0,1,522.15,389.531Z" transform="translate(-522.084 -388.557)" fill="url(#az)"/></g><path d="M149.585,388.524q.369.013.6.013c.156,0,.359,0,.607-.013s.447-.016.6-.019a1.825,1.825,0,0,0,.377-.055l.1.838a.213.213,0,0,1-.147.038c-.03,0-.048-.009-.055-.028a.8.8,0,0,0-.2-.408.605.605,0,0,0-.394-.106c-.34,0-.517.03-.531.093a1.886,1.886,0,0,0-.05.515v1.976a1.834,1.834,0,0,0,.05.475q0,.039.147.08a.843.843,0,0,0,.192.041c.014,0,.021.033.021.1a.291.291,0,0,1-.011.088l-.211-.017c-.094-.007-.179-.013-.257-.016s-.154-.006-.227-.006c-.1,0-.235.006-.408.017s-.281.018-.32.022a.127.127,0,0,1-.022-.088c0-.065.007-.1.022-.1a.864.864,0,0,0,.2-.038c.093-.025.145-.052.156-.082a1.688,1.688,0,0,0,.045-.454v-1.981a1.488,1.488,0,0,0-.05-.531c-.029-.062-.2-.093-.52-.093a.6.6,0,0,0-.394.106.808.808,0,0,0-.208.4c0,.022-.022.033-.055.033a.184.184,0,0,1-.142-.044l.1-.832a1.821,1.821,0,0,0,.377.055C149.141,388.508,149.339,388.515,149.585,388.524Z" transform="translate(-148.509 -388.45)" fill="url(#ah)"/><g transform="translate(3.763 0.038)"><path d="M168.922,388.664l1.15,2.868c.054.147.109.279.164.4a.268.268,0,0,0,.175.131.711.711,0,0,0,.208.049c.015,0,.022.033.022.1a.187.187,0,0,1-.011.082c-.438-.022-.668-.033-.69-.033s-.263.011-.711.033a.16.16,0,0,1-.022-.1c0-.053.008-.08.022-.08a.709.709,0,0,0,.181-.033c.076-.022.122-.048.137-.077a.153.153,0,0,0,.017-.071,1.273,1.273,0,0,0-.1-.378l-.192-.509a.061.061,0,0,0-.038-.021c-.117-.007-.273-.011-.471-.011s-.4.006-.623.017c-.022,0-.033.007-.033.022l-.208.508a1.577,1.577,0,0,0-.1.356.122.122,0,0,0,.06.109.559.559,0,0,0,.172.06.916.916,0,0,0,.167.027c.011,0,.017.029.017.077a.365.365,0,0,1-.011.1c-.018,0-.1-.006-.257-.017s-.277-.017-.372-.017-.207,0-.337.014l-.276.019a.116.116,0,0,1-.022-.082c0-.065,0-.1.011-.1a.783.783,0,0,0,.211-.046.339.339,0,0,0,.183-.107,2.6,2.6,0,0,0,.208-.427l1.018-2.463a1.188,1.188,0,0,1,.2-.394.137.137,0,0,1,.093-.038A.093.093,0,0,1,168.922,388.664Zm-.657,2.036q.192.016.395.016c.128,0,.277-.005.449-.016l.011-.022-.416-1.095-.449,1.095C168.254,390.693,168.257,390.7,168.265,390.7Z" transform="translate(-166.929 -388.636)" fill="url(#ai)"/></g><g transform="translate(7.899 0.022)"><path d="M187.238,389.531a.864.864,0,0,1,.345-.692,1.2,1.2,0,0,1,.777-.282,1.839,1.839,0,0,1,.268.017,3.214,3.214,0,0,1,.32.068c.137.035.231.058.282.068a4.889,4.889,0,0,1,.066.843.06.06,0,0,1-.066.05c-.1,0-.151-.017-.159-.05a.967.967,0,0,0-.235-.493.622.622,0,0,0-.493-.241.505.505,0,0,0-.386.142.536.536,0,0,0-.134.383.626.626,0,0,0,.019.156.372.372,0,0,0,.077.144l.093.118a.641.641,0,0,0,.137.118c.068.047.113.081.136.1s.079.055.164.107a1.581,1.581,0,0,0,.156.09,1.855,1.855,0,0,0,.184.118c.1.06.17.1.211.131s.1.074.175.139a.8.8,0,0,1,.167.186,1.122,1.122,0,0,1,.1.221.92.92,0,0,1,.044.288.886.886,0,0,1-.353.722,1.265,1.265,0,0,1-.818.285,5.14,5.14,0,0,1-1.007-.152,4.929,4.929,0,0,1-.091-.5,3.728,3.728,0,0,1-.04-.392q0-.044.087-.044c.095,0,.148.015.159.044a1.044,1.044,0,0,0,.077.216,1.632,1.632,0,0,0,.151.252.714.714,0,0,0,.257.219.774.774,0,0,0,.364.085.613.613,0,0,0,.426-.153.588.588,0,0,0,.17-.46.487.487,0,0,0-.035-.18.661.661,0,0,0-.082-.148.834.834,0,0,0-.137-.131c-.06-.047-.11-.084-.151-.109s-.1-.061-.178-.107l-.167-.1a.33.33,0,0,0-.06-.044c-.105-.066-.186-.116-.241-.153a2.593,2.593,0,0,1-.21-.161,1.058,1.058,0,0,1-.194-.2,1.087,1.087,0,0,1-.118-.23A.837.837,0,0,1,187.238,389.531Z" transform="translate(-187.172 -388.557)" fill="url(#aj)"/></g><g transform="translate(10.594)"><path d="M201.442,388.524q.368.013.6.013c.156,0,.359,0,.607-.013s.447-.016.6-.019a1.823,1.823,0,0,0,.377-.055l.1.838a.218.218,0,0,1-.149.038c-.029,0-.047-.009-.055-.028a.791.791,0,0,0-.2-.408.6.6,0,0,0-.394-.106c-.34,0-.516.03-.531.093a1.9,1.9,0,0,0-.049.515v1.976a1.848,1.848,0,0,0,.049.475q.006.039.147.08a.843.843,0,0,0,.192.041c.015,0,.021.033.021.1a.267.267,0,0,1-.011.088l-.211-.017c-.093-.007-.179-.013-.257-.016s-.154-.006-.227-.006c-.1,0-.235.006-.409.017s-.28.018-.32.022a.127.127,0,0,1-.022-.088c0-.065.008-.1.022-.1a.866.866,0,0,0,.206-.038c.093-.025.145-.052.155-.082a1.722,1.722,0,0,0,.044-.454v-1.981a1.5,1.5,0,0,0-.049-.531c-.029-.062-.2-.093-.52-.093a.6.6,0,0,0-.394.106.81.81,0,0,0-.208.4c0,.022-.022.033-.055.033a.183.183,0,0,1-.142-.044l.1-.832a1.824,1.824,0,0,0,.378.055C201,388.508,201.2,388.515,201.442,388.524Z" transform="translate(-200.366 -388.45)" fill="url(#ak)"/></g><g transform="translate(14.347 0.044)"><path d="M219.484,388.7c.161,0,.443-.007.849-.019s.711-.019.919-.019q.022.164.088.457c.044.195.068.3.072.32a.17.17,0,0,1-.115.027.075.075,0,0,1-.077-.038.687.687,0,0,0-.7-.487h-.285c-.269,0-.409.024-.415.072a2.2,2.2,0,0,0-.033.443v.859c0,.022.081.033.241.033h.306a1.38,1.38,0,0,0,.378-.028c.04-.018.07-.082.093-.192.011-.055.021-.1.032-.137s.033-.038.087-.038a.152.152,0,0,1,.1.027v1.034a.157.157,0,0,1-.1.022c-.046,0-.076-.014-.087-.044a1.765,1.765,0,0,0-.068-.219.33.33,0,0,0-.038-.076l-.046-.033a1.508,1.508,0,0,0-.5-.044q-.394,0-.394.044v.849a1.5,1.5,0,0,0,.049.443c.019.048.143.072.373.072h.2a1.472,1.472,0,0,0,.651-.115.62.62,0,0,0,.2-.192,1.137,1.137,0,0,0,.17-.334c0-.022.029-.033.077-.033a.239.239,0,0,1,.154.033c-.012.032-.038.107-.08.224s-.074.2-.1.266-.046.133-.072.221a1.427,1.427,0,0,0-.049.214q-.219,0-.906-.017t-.967-.005l-.728.022a.148.148,0,0,1-.016-.088c0-.062.005-.094.016-.094a.867.867,0,0,0,.208-.036c.092-.023.145-.052.159-.085a1.983,1.983,0,0,0,.038-.5v-2.069a1.755,1.755,0,0,0-.038-.45c-.011-.04-.062-.073-.154-.1a.885.885,0,0,0-.219-.038c-.015,0-.021-.027-.021-.082a.148.148,0,0,1,.021-.1Q219.118,388.7,219.484,388.7Z" transform="translate(-218.735 -388.665)" fill="url(#al)"/></g><g transform="translate(18.912 0.027)"><path d="M241.591,391.748a1.926,1.926,0,0,1,0-2.619,1.68,1.68,0,0,1,2.478,0,1.916,1.916,0,0,1,0,2.619,1.687,1.687,0,0,1-2.478,0Zm1.155-2.9a.791.791,0,0,0-.72.43,2.036,2.036,0,0,0-.248,1.037,2.719,2.719,0,0,0,.111.782,1.53,1.53,0,0,0,.381.643.879.879,0,0,0,.646.271.794.794,0,0,0,.72-.435,2.016,2.016,0,0,0,.255-1.036,2.775,2.775,0,0,0-.11-.792,1.47,1.47,0,0,0-.377-.635A.9.9,0,0,0,242.747,388.852Z" transform="translate(-241.078 -388.584)" fill="url(#am)"/></g><g transform="translate(22.811 0.055)"><path d="M260.908,388.753q.1,0,.7-.032a.327.327,0,0,1,.012.087c0,.062-.008.093-.022.093a.93.93,0,0,0-.2.041c-.1.027-.15.056-.154.085a1.992,1.992,0,0,0-.044.481v1.259a1.5,1.5,0,0,0,.244.9.786.786,0,0,0,.675.336.873.873,0,0,0,.676-.277,1.335,1.335,0,0,0,.255-.917v-1.335a1.132,1.132,0,0,0-.054-.438.388.388,0,0,0-.195-.1.963.963,0,0,0-.232-.047c-.014,0-.024-.026-.025-.077a.186.186,0,0,1,.013-.1c.4.025.625.038.691.038.09,0,.212-.006.363-.019s.245-.019.281-.019a.29.29,0,0,1,.012.087c0,.058-.008.088-.022.088a1.058,1.058,0,0,0-.235.04.356.356,0,0,0-.208.113,1.231,1.231,0,0,0-.06.454v1.286a2.285,2.285,0,0,1-.1.737,1.136,1.136,0,0,1-.3.487,1.193,1.193,0,0,1-.435.26,1.745,1.745,0,0,1-.556.082,1.36,1.36,0,0,1-1.034-.4,1.809,1.809,0,0,1-.377-1.278v-1.194a1.449,1.449,0,0,0-.045-.46c-.014-.029-.065-.058-.153-.085a.738.738,0,0,0-.2-.041c-.014,0-.021-.028-.021-.082s.005-.088.016-.1Z" transform="translate(-260.164 -388.72)" fill="url(#an)"/></g><g transform="translate(26.946 0.06)"><path d="M281.927,388.751a1.587,1.587,0,0,1,.3.03,1.675,1.675,0,0,1,.324.1,1.34,1.34,0,0,1,.3.175.769.769,0,0,1,.215.274.875.875,0,0,1,.081.383.934.934,0,0,1-.191.558,1.054,1.054,0,0,1-.465.372c-.029.011-.036.029-.021.055a6.5,6.5,0,0,0,.613.931,2.383,2.383,0,0,0,.412.4.7.7,0,0,0,.409.166.156.156,0,0,1,.021.088.218.218,0,0,1-.021.1,1.071,1.071,0,0,1-.17.011,1.825,1.825,0,0,1-.507-.066,1.162,1.162,0,0,1-.394-.194,2.12,2.12,0,0,1-.276-.249,2.461,2.461,0,0,1-.231-.306c-.05-.073-.109-.159-.175-.257L282,391.1c-.035-.053-.074-.109-.118-.166a.942.942,0,0,0-.113-.132.276.276,0,0,0-.09-.06.342.342,0,0,0-.131-.017c-.058,0-.087.031-.087.093v.772a1.7,1.7,0,0,0,.044.465c.011.045.072.08.184.107a1.1,1.1,0,0,0,.243.041c.015,0,.022.031.022.094a.289.289,0,0,1-.012.093q-.6-.032-.777-.032c-.1,0-.208,0-.33.008l-.293.013-.11.011a.192.192,0,0,1-.016-.1c0-.058.005-.088.016-.088a.893.893,0,0,0,.211-.036c.093-.023.147-.052.162-.085a2.183,2.183,0,0,0,.033-.5v-2.069a2.215,2.215,0,0,0-.033-.45c-.011-.029-.065-.059-.162-.09a.82.82,0,0,0-.211-.047c-.014,0-.021-.027-.021-.081s.007-.087.021-.1c.387.011.63.017.728.017s.229,0,.381-.005S281.818,388.751,281.927,388.751Zm-.087.274a.9.9,0,0,0-.317.038c-.041.019-.062.208-.066.57v.629a.153.153,0,0,0,.093.159.709.709,0,0,0,.257.038h.143a.471.471,0,0,0,.363-.191.749.749,0,0,0,.162-.5Q282.475,389.024,281.84,389.024Z" transform="translate(-280.406 -388.745)" fill="url(#ao)"/></g><g transform="translate(31.943 0.055)"><path d="M305.615,388.753c.04,0,.261-.011.662-.032a.89.89,0,0,1,.009.1c0,.047-.005.073-.02.076a.563.563,0,0,0-.088.008.3.3,0,0,0-.111.049.128.128,0,0,0-.064.113.7.7,0,0,0,.1.29l1.073,2.119c.012.019.025.022.041.013a.074.074,0,0,0,.036-.036l.4-.777-.585-1.182a2.311,2.311,0,0,0-.28-.465.369.369,0,0,0-.145-.093.465.465,0,0,0-.172-.038c-.015,0-.022-.031-.022-.093a.142.142,0,0,1,.017-.087c.46.022.7.032.723.032s.244-.011.646-.032a.4.4,0,0,1,.013.1c0,.047,0,.073-.013.076a.506.506,0,0,0-.1.011.264.264,0,0,0-.106.052.126.126,0,0,0-.054.107.748.748,0,0,0,.1.285l.334.684.322-.662a.765.765,0,0,0,.1-.3c0-.066-.044-.112-.134-.14a.813.813,0,0,0-.232-.04c-.014,0-.022-.026-.022-.077a.176.176,0,0,1,.017-.1c.321.022.521.032.6.032s.159,0,.227-.005.139-.008.216-.014l.186-.013a.312.312,0,0,1,.012.1c0,.046-.007.07-.017.074a.655.655,0,0,0-.2.049.442.442,0,0,0-.19.115,2.667,2.667,0,0,0-.312.514l-.4.81.531,1.084c.021.037.045.028.072-.027q.109-.258.515-1.111c.269-.569.418-.883.443-.941a.841.841,0,0,0,.1-.307q0-.1-.131-.142a.713.713,0,0,0-.219-.044c-.015,0-.022-.026-.025-.077a.142.142,0,0,1,.02-.1q.481.032.6.032c.082,0,.155,0,.221-.005s.135-.008.208-.014l.186-.013a.391.391,0,0,1,.011.109c0,.043-.007.066-.021.066a.575.575,0,0,0-.188.047.525.525,0,0,0-.184.107,2.429,2.429,0,0,0-.317.52l-1.253,2.654a.357.357,0,0,1-.1.131.172.172,0,0,1-.1.044.074.074,0,0,1-.054-.022l-.668-1.346-.623,1.193a.408.408,0,0,1-.1.134.137.137,0,0,1-.1.041.074.074,0,0,1-.054-.022l-1.451-2.879a2.977,2.977,0,0,0-.284-.477.307.307,0,0,0-.151-.087.636.636,0,0,0-.172-.033c-.015,0-.021-.029-.021-.088a.158.158,0,0,1,.016-.093Q305.578,388.753,305.615,388.753Z" transform="translate(-304.866 -388.721)" fill="url(#ap)"/></g><g transform="translate(38.07 0.027)"><path d="M335.372,391.748a1.923,1.923,0,0,1,0-2.619,1.679,1.679,0,0,1,2.476,0,1.916,1.916,0,0,1,0,2.619,1.686,1.686,0,0,1-2.476,0Zm1.155-2.9a.788.788,0,0,0-.72.43,2.036,2.036,0,0,0-.249,1.037,2.67,2.67,0,0,0,.113.782,1.515,1.515,0,0,0,.381.643.874.874,0,0,0,.646.271.793.793,0,0,0,.719-.435,2.016,2.016,0,0,0,.255-1.036,2.782,2.782,0,0,0-.109-.792,1.461,1.461,0,0,0-.378-.635A.9.9,0,0,0,336.527,388.852Z" transform="translate(-334.857 -388.584)" fill="url(#aq)"/></g><g transform="translate(41.981 0.06)"><path d="M355.522,388.751a1.586,1.586,0,0,1,.3.03,1.67,1.67,0,0,1,.324.1,1.339,1.339,0,0,1,.3.175.783.783,0,0,1,.215.274.872.872,0,0,1,.081.383.932.932,0,0,1-.191.558,1.054,1.054,0,0,1-.465.372c-.029.011-.036.029-.021.055a6.459,6.459,0,0,0,.613.931,2.376,2.376,0,0,0,.412.4.7.7,0,0,0,.409.166.156.156,0,0,1,.021.088.215.215,0,0,1-.021.1,1.072,1.072,0,0,1-.17.011,1.818,1.818,0,0,1-.507-.066,1.166,1.166,0,0,1-.394-.194,2.122,2.122,0,0,1-.276-.249,2.482,2.482,0,0,1-.231-.306c-.05-.073-.109-.159-.175-.257l-.15-.227c-.035-.053-.074-.109-.118-.166a.943.943,0,0,0-.113-.132.274.274,0,0,0-.09-.06.341.341,0,0,0-.131-.017q-.087,0-.087.093v.772a1.706,1.706,0,0,0,.044.465c.011.045.072.08.183.107a1.126,1.126,0,0,0,.244.041c.014,0,.022.031.022.094a.289.289,0,0,1-.012.093c-.4-.022-.661-.032-.777-.032-.1,0-.208,0-.33.008l-.293.013-.11.011a.192.192,0,0,1-.016-.1c0-.058.005-.088.016-.088a.893.893,0,0,0,.211-.036c.093-.023.147-.052.162-.085a2.183,2.183,0,0,0,.033-.5v-2.069a2.2,2.2,0,0,0-.033-.45c-.011-.029-.065-.059-.162-.09a.82.82,0,0,0-.211-.047c-.014,0-.021-.027-.021-.081s.007-.087.021-.1c.387.011.63.017.728.017s.229,0,.38-.005S355.413,388.751,355.522,388.751Zm-.088.274a.906.906,0,0,0-.317.038c-.041.019-.062.208-.066.57v.629a.153.153,0,0,0,.093.159.709.709,0,0,0,.257.038h.143a.471.471,0,0,0,.363-.191.75.75,0,0,0,.162-.5Q356.07,389.024,355.435,389.024Z" transform="translate(-354.001 -388.745)" fill="url(#ar)"/></g><g transform="translate(45.849 0.056)"><path d="M373.97,389.509v2.058a1.6,1.6,0,0,0,.049.438c.019.048.142.072.373.072h.2a1.468,1.468,0,0,0,.651-.115.626.626,0,0,0,.2-.192,1.168,1.168,0,0,0,.17-.334c0-.022.029-.033.077-.033a.232.232,0,0,1,.152.033q-.016.049-.08.224c-.041.116-.073.2-.1.266s-.045.133-.072.221a1.634,1.634,0,0,0-.049.214q-.219,0-.906-.017t-.966-.005l-.728.022a.147.147,0,0,1-.016-.088c0-.062.005-.094.016-.094a.866.866,0,0,0,.208-.036c.09-.023.143-.052.158-.085a1.924,1.924,0,0,0,.038-.5v-2.069a1.677,1.677,0,0,0-.044-.466c-.014-.029-.065-.058-.153-.085a.737.737,0,0,0-.2-.041c-.014,0-.021-.028-.021-.082s0-.091.011-.1.119.005.3.017.325.016.424.016q.044,0,.7-.033a.29.29,0,0,1,.017.087c0,.062-.008.093-.022.093a.9.9,0,0,0-.2.044c-.1.029-.151.056-.158.082A2.038,2.038,0,0,0,373.97,389.509Z" transform="translate(-372.93 -388.722)" fill="url(#as)"/></g><g transform="translate(49.146 0.06)"><path d="M389.821,388.763h.945a1.834,1.834,0,0,1,1.394.525,1.734,1.734,0,0,1,.5,1.237,1.785,1.785,0,0,1-1.9,1.855c-.077,0-.227,0-.451-.011s-.386-.011-.484-.011l-.728.022c-.012-.011-.017-.04-.017-.088,0-.062.005-.094.017-.094a.878.878,0,0,0,.208-.036c.09-.023.143-.052.158-.085a1.994,1.994,0,0,0,.038-.5v-2.069a1.757,1.757,0,0,0-.038-.45c-.011-.04-.063-.073-.153-.1a.881.881,0,0,0-.22-.038c-.013,0-.021-.027-.021-.082a.157.157,0,0,1,.021-.1C389.333,388.757,389.576,388.763,389.821,388.763Zm.3.7v2.146a.89.89,0,0,0,.061.405,1.34,1.34,0,0,0,.667.087q1.112,0,1.111-1.6a1.77,1.77,0,0,0-.3-1.04.977.977,0,0,0-.85-.427h-.028q-.525,0-.592.087A.6.6,0,0,0,390.121,389.463Z" transform="translate(-389.071 -388.746)" fill="url(#at)"/></g><g transform="translate(55.646 0.027)"><path d="M421.4,391.748a1.927,1.927,0,0,1,0-2.619,1.68,1.68,0,0,1,2.478,0,1.916,1.916,0,0,1,0,2.619,1.687,1.687,0,0,1-2.478,0Zm1.155-2.9a.787.787,0,0,0-.719.43,2.036,2.036,0,0,0-.249,1.037,2.677,2.677,0,0,0,.113.782,1.513,1.513,0,0,0,.379.643.879.879,0,0,0,.646.271.794.794,0,0,0,.72-.435,2.016,2.016,0,0,0,.255-1.036,2.777,2.777,0,0,0-.11-.792,1.468,1.468,0,0,0-.377-.635A.9.9,0,0,0,422.553,388.852Z" transform="translate(-420.885 -388.584)" fill="url(#au)"/></g><g transform="translate(59.551 0.044)"><path d="M440.78,392.284c-.11,0-.227,0-.352.009s-.22.011-.29.019l-.109.006a.149.149,0,0,1-.016-.088c0-.062.005-.094.016-.094a.869.869,0,0,0,.208-.036c.092-.023.143-.052.158-.085a1.9,1.9,0,0,0,.04-.5v-2.069a1.677,1.677,0,0,0-.04-.45c-.011-.04-.061-.073-.152-.1a.887.887,0,0,0-.219-.038c-.015,0-.021-.027-.021-.081a.149.149,0,0,1,.021-.1c.237.015.477.022.723.022q.256.005.867-.017t.9-.022q.022.164.087.457c.044.195.068.3.072.32a.169.169,0,0,1-.115.027c-.04,0-.066-.013-.077-.038a.687.687,0,0,0-.7-.487H441.5c-.271,0-.408.024-.415.072a2.415,2.415,0,0,0-.028.443v.859c0,.022.08.033.24.033h.3a1.364,1.364,0,0,0,.377-.028c.041-.018.072-.082.093-.192.012-.055.022-.1.033-.137s.033-.038.088-.038a.152.152,0,0,1,.1.027v1.034a.16.16,0,0,1-.1.022c-.048,0-.077-.014-.088-.045a1.7,1.7,0,0,0-.068-.219.388.388,0,0,0-.038-.076l-.047-.033a1.512,1.512,0,0,0-.5-.044q-.388,0-.389.044v.859a1.351,1.351,0,0,0,.06.454c.014.036.081.071.2.1a1.065,1.065,0,0,0,.235.049c.019,0,.028.031.028.094a.149.149,0,0,1-.017.088Q440.9,392.284,440.78,392.284Z" transform="translate(-440.003 -388.666)" fill="url(#av)"/></g><g transform="translate(65.114)"><path d="M468.306,388.524q.37.013.6.013c.158,0,.36,0,.608-.013s.447-.016.6-.019a1.823,1.823,0,0,0,.378-.055l.105.838a.218.218,0,0,1-.149.038c-.029,0-.048-.009-.054-.028a.8.8,0,0,0-.2-.408.6.6,0,0,0-.394-.106c-.339,0-.517.03-.531.093a1.891,1.891,0,0,0-.05.515v1.976a1.842,1.842,0,0,0,.05.475c0,.026.053.053.147.08a.845.845,0,0,0,.192.041c.013,0,.021.033.021.1a.311.311,0,0,1-.011.088l-.211-.017c-.093-.007-.179-.013-.257-.016s-.154-.006-.227-.006c-.1,0-.235.006-.409.017s-.28.018-.32.022a.127.127,0,0,1-.022-.088c0-.065.008-.1.022-.1a.857.857,0,0,0,.2-.038c.094-.025.146-.052.157-.082a1.723,1.723,0,0,0,.044-.454v-1.981a1.5,1.5,0,0,0-.049-.531c-.029-.062-.2-.093-.52-.093a.6.6,0,0,0-.394.106.805.805,0,0,0-.208.4c0,.022-.021.033-.056.033a.185.185,0,0,1-.142-.044l.1-.832a1.82,1.82,0,0,0,.377.055C467.862,388.508,468.061,388.515,468.306,388.524Z" transform="translate(-467.231 -388.45)" fill="url(#aw)"/></g><g transform="translate(68.865 0.044)"><path d="M486.344,388.7q.241,0,.849-.019t.919-.019q.022.164.088.457l.072.32a.17.17,0,0,1-.115.027c-.04,0-.066-.013-.077-.038a.688.688,0,0,0-.7-.487h-.285q-.406,0-.415.072a2.207,2.207,0,0,0-.033.443v.859c0,.022.08.033.24.033h.308a1.362,1.362,0,0,0,.377-.028c.041-.018.072-.082.093-.192.012-.055.022-.1.033-.137s.033-.038.087-.038a.152.152,0,0,1,.105.027v1.034a.161.161,0,0,1-.105.022c-.048,0-.075-.014-.087-.044a1.759,1.759,0,0,0-.068-.219.331.331,0,0,0-.038-.076l-.047-.033a1.512,1.512,0,0,0-.5-.044q-.394,0-.394.044v.849a1.456,1.456,0,0,0,.049.443c.019.048.142.072.373.072h.2a1.464,1.464,0,0,0,.651-.115.626.626,0,0,0,.2-.192,1.171,1.171,0,0,0,.17-.334c0-.022.029-.033.077-.033a.231.231,0,0,1,.152.033q-.016.049-.079.224c-.041.116-.073.2-.1.266s-.045.133-.07.221a1.488,1.488,0,0,0-.05.214c-.146,0-.447-.006-.906-.017s-.78-.013-.966-.005l-.728.022a.148.148,0,0,1-.016-.088c0-.062.005-.094.016-.094a.87.87,0,0,0,.208-.036c.091-.023.143-.052.158-.085a1.9,1.9,0,0,0,.04-.5v-2.069a1.676,1.676,0,0,0-.04-.45c-.011-.04-.061-.073-.153-.1a.883.883,0,0,0-.219-.038c-.015,0-.022-.027-.022-.082a.148.148,0,0,1,.022-.1C485.857,388.7,486.1,388.7,486.344,388.7Z" transform="translate(-485.593 -388.665)" fill="url(#ax)"/></g><g transform="translate(72.185 0.038)"><path d="M503.834,388.664l1.15,2.868c.055.147.109.279.163.4a.271.271,0,0,0,.175.131.715.715,0,0,0,.208.049c.014,0,.022.033.022.1a.171.171,0,0,1-.012.082c-.438-.022-.667-.033-.689-.033s-.263.011-.711.033a.155.155,0,0,1-.022-.1c0-.053.008-.08.022-.08a.7.7,0,0,0,.18-.033c.077-.022.122-.048.136-.077a.145.145,0,0,0,.017-.071,1.288,1.288,0,0,0-.1-.378l-.191-.509a.064.064,0,0,0-.038-.021c-.117-.007-.275-.011-.471-.011s-.406.006-.625.017c-.021,0-.032.007-.032.022l-.208.508a1.608,1.608,0,0,0-.1.356.123.123,0,0,0,.061.109.561.561,0,0,0,.173.06.915.915,0,0,0,.167.027c.011,0,.016.029.016.077a.4.4,0,0,1-.011.1c-.019,0-.105-.006-.257-.017s-.277-.017-.373-.017-.207,0-.337.014l-.276.019a.117.117,0,0,1-.022-.082c0-.065,0-.1.012-.1a.781.781,0,0,0,.211-.046.342.342,0,0,0,.183-.107,2.708,2.708,0,0,0,.208-.427l1.017-2.463a1.222,1.222,0,0,1,.2-.394.138.138,0,0,1,.093-.038A.1.1,0,0,1,503.834,388.664Zm-.658,2.036c.129.011.26.016.4.016s.277-.005.448-.016l.011-.022-.415-1.095-.449,1.095C503.166,390.693,503.17,390.7,503.177,390.7Z" transform="translate(-501.841 -388.636)" fill="url(#ay)"/></g><g transform="translate(76.32 0.022)"><path d="M522.15,389.531a.862.862,0,0,1,.345-.692,1.2,1.2,0,0,1,.777-.282,1.845,1.845,0,0,1,.268.017,3.2,3.2,0,0,1,.32.068c.138.035.231.058.283.068a4.9,4.9,0,0,1,.065.843.059.059,0,0,1-.065.05q-.147,0-.159-.05a.956.956,0,0,0-.235-.493.623.623,0,0,0-.493-.241.508.508,0,0,0-.386.142.539.539,0,0,0-.134.383.6.6,0,0,0,.02.156.371.371,0,0,0,.077.144l.093.118a.621.621,0,0,0,.137.118c.068.047.113.081.137.1s.078.055.164.107a1.6,1.6,0,0,0,.155.09,1.983,1.983,0,0,0,.184.118c.1.06.17.1.211.131s.1.074.175.139a.8.8,0,0,1,.167.186,1.132,1.132,0,0,1,.1.221.915.915,0,0,1,.044.288.889.889,0,0,1-.353.722,1.269,1.269,0,0,1-.818.285,5.145,5.145,0,0,1-1.008-.152,4.851,4.851,0,0,1-.09-.5,3.556,3.556,0,0,1-.041-.392c0-.029.033-.044.088-.044q.143,0,.159.044a1.021,1.021,0,0,0,.077.216,1.576,1.576,0,0,0,.15.252.717.717,0,0,0,.257.219.776.776,0,0,0,.365.085.611.611,0,0,0,.426-.153.585.585,0,0,0,.17-.46.5.5,0,0,0-.035-.18.652.652,0,0,0-.082-.148.827.827,0,0,0-.138-.131c-.06-.047-.11-.084-.15-.109s-.1-.061-.178-.107-.134-.078-.167-.1a.334.334,0,0,0-.06-.044c-.106-.066-.187-.116-.241-.153s-.125-.09-.211-.161a1.046,1.046,0,0,1-.193-.2,1.058,1.058,0,0,1-.118-.23A.823.823,0,0,1,522.15,389.531Z" transform="translate(-522.084 -388.557)" fill="url(#az)"/></g></g></svg>